<?xml version="1.0" encoding="UTF-8"?>
<svg xmlns="http://www.w3.org/2000/svg" width="138.58" height="123.73" viewBox="0 0 138.58 123.73" class="xpict" style="background:transparent;max-width:100%;max-height:100%"><g class="xpict-halo" id="halo"><path d="M 23.75 49.72 L 23.75 49.7 L 23.75 49.69 L 23.75 49.67 L 23.77 49.31 L 23.77 49.28 L 23.77 49.27 L 23.77 49.24 L 23.81 48.9 L 23.81 48.88 L 23.82 48.86 L 23.82 48.84 L 23.88 48.51 L 23.89 48.49 L 23.89 48.47 L 23.9 48.44 L 23.99 48.14 L 24 48.11 L 24.01 48.09 L 24.02 48.06 L 24.13 47.78 L 24.15 47.75 L 24.15 47.73 L 24.17 47.7 L 24.31 47.44 L 24.33 47.42 L 24.34 47.4 L 24.36 47.37 L 24.52 47.13 L 24.54 47.1 L 24.56 47.08 L 24.58 47.05 L 24.77 46.84 L 24.79 46.81 L 24.81 46.79 L 24.83 46.77 L 25.05 46.57 L 25.07 46.55 L 25.09 46.54 L 25.12 46.51 L 25.35 46.34 L 25.38 46.32 L 25.4 46.31 L 25.43 46.29 L 25.68 46.15 L 25.71 46.13 L 25.73 46.12 L 25.76 46.11 L 26.04 45.99 L 26.07 45.98 L 26.09 45.97 L 26.12 45.96 L 26.41 45.87 L 26.44 45.86 L 26.46 45.86 L 26.49 45.85 L 26.8 45.79 L 26.83 45.78 L 26.84 45.78 L 26.87 45.77 L 27.2 45.73 L 27.23 45.73 L 27.24 45.73 L 27.27 45.73 L 27.62 45.72 L 27.64 45.72 L 27.65 45.72 L 27.67 45.72 L 27.91 45.72 L 27.92 45.72 L 27.93 45.72 L 27.95 45.72 L 28.17 45.74 L 28.19 45.74 L 28.2 45.74 L 28.22 45.75 L 28.44 45.78 L 28.45 45.78 L 28.47 45.78 L 28.48 45.78 L 28.69 45.82 L 28.71 45.83 L 28.72 45.83 L 28.74 45.84 L 28.94 45.89 L 28.96 45.89 L 28.98 45.9 L 29 45.9 L 29.19 45.97 L 29.21 45.98 L 29.22 45.98 L 29.24 45.99 L 29.43 46.06 L 29.45 46.07 L 29.46 46.08 L 29.48 46.09 L 29.66 46.18 L 29.68 46.19 L 29.69 46.19 L 29.71 46.2 L 29.88 46.3 L 29.9 46.32 L 29.91 46.32 L 29.93 46.34 L 30.09 46.45 L 30.11 46.46 L 30.12 46.47 L 30.14 46.48 L 30.29 46.61 L 30.3 46.62 L 30.32 46.63 L 30.33 46.65 L 30.47 46.78 L 30.49 46.8 L 30.5 46.81 L 30.52 46.82 L 30.64 46.97 L 30.66 46.98 L 30.67 47 L 30.68 47.01 L 30.8 47.17 L 30.81 47.19 L 30.82 47.2 L 30.84 47.22 L 30.94 47.38 L 30.96 47.4 L 30.96 47.41 L 30.97 47.43 L 31.07 47.6 L 31.08 47.62 L 31.09 47.64 L 31.1 47.66 L 31.18 47.84 L 31.19 47.86 L 31.2 47.87 L 31.2 47.89 L 31.28 48.08 L 31.29 48.1 L 31.29 48.11 L 31.3 48.13 L 31.36 48.33 L 31.37 48.35 L 31.37 48.36 L 31.37 48.38 L 31.43 48.59 L 31.43 48.61 L 31.43 48.62 L 31.44 48.64 L 31.48 48.85 L 31.48 48.87 L 31.48 48.88 L 31.48 48.9 L 31.51 49.12 L 31.51 49.14 L 31.52 49.15 L 31.52 49.16 L 31.53 49.4 L 31.53 49.41 L 31.54 49.42 L 31.54 49.44 L 31.54 49.68 L 31.54 49.69 L 31.54 49.7 L 31.54 49.72 L 31.54 49.96 L 31.54 49.97 L 31.53 49.98 L 31.53 50 L 31.52 50.23 L 31.51 50.25 L 31.51 50.26 L 31.51 50.27 L 31.48 50.5 L 31.48 50.51 L 31.48 50.53 L 31.48 50.54 L 31.43 50.76 L 31.43 50.78 L 31.43 50.79 L 31.42 50.81 L 31.37 51.02 L 31.37 51.03 L 31.36 51.05 L 31.36 51.07 L 31.29 51.27 L 31.29 51.29 L 31.28 51.3 L 31.28 51.32 L 31.2 51.51 L 31.19 51.53 L 31.19 51.54 L 31.18 51.56 L 31.09 51.75 L 31.08 51.76 L 31.08 51.78 L 31.07 51.8 L 30.97 51.97 L 30.96 51.99 L 30.95 52 L 30.94 52.02 L 30.83 52.19 L 30.82 52.21 L 30.81 52.22 L 30.8 52.24 L 30.68 52.39 L 30.67 52.41 L 30.66 52.42 L 30.64 52.44 L 30.51 52.59 L 30.5 52.6 L 30.49 52.62 L 30.47 52.63 L 30.33 52.77 L 30.32 52.78 L 30.3 52.79 L 30.29 52.81 L 30.14 52.93 L 30.12 52.95 L 30.11 52.96 L 30.09 52.97 L 29.93 53.08 L 29.91 53.1 L 29.9 53.1 L 29.88 53.12 L 29.71 53.22 L 29.69 53.23 L 29.68 53.24 L 29.66 53.25 L 29.48 53.34 L 29.46 53.35 L 29.45 53.36 L 29.43 53.37 L 29.24 53.45 L 29.22 53.45 L 29.21 53.46 L 29.19 53.47 L 29 53.53 L 28.98 53.54 L 28.96 53.54 L 28.94 53.55 L 28.74 53.6 L 28.72 53.61 L 28.71 53.61 L 28.69 53.62 L 28.48 53.66 L 28.46 53.66 L 28.45 53.67 L 28.43 53.67 L 28.22 53.7 L 28.2 53.7 L 28.19 53.7 L 28.17 53.7 L 27.94 53.72 L 27.93 53.72 L 27.91 53.72 L 27.9 53.73 L 27.67 53.73 L 27.65 53.73 L 27.64 53.73 L 27.62 53.73 L 27.39 53.73 L 27.37 53.72 L 27.36 53.72 L 27.34 53.72 L 27.12 53.71 L 27.1 53.7 L 27.09 53.7 L 27.07 53.7 L 26.85 53.67 L 26.83 53.67 L 26.82 53.66 L 26.8 53.66 L 26.59 53.62 L 26.57 53.61 L 26.56 53.61 L 26.54 53.61 L 26.34 53.55 L 26.32 53.55 L 26.31 53.54 L 26.29 53.54 L 26.09 53.47 L 26.07 53.46 L 26.06 53.46 L 26.04 53.45 L 25.85 53.37 L 25.83 53.36 L 25.82 53.36 L 25.8 53.35 L 25.62 53.25 L 25.6 53.24 L 25.59 53.24 L 25.57 53.23 L 25.4 53.12 L 25.38 53.11 L 25.37 53.1 L 25.35 53.09 L 25.19 52.98 L 25.17 52.96 L 25.16 52.95 L 25.14 52.94 L 25 52.81 L 24.98 52.8 L 24.97 52.79 L 24.95 52.77 L 24.81 52.64 L 24.8 52.62 L 24.78 52.61 L 24.77 52.59 L 24.64 52.45 L 24.63 52.43 L 24.62 52.42 L 24.6 52.4 L 24.49 52.24 L 24.47 52.22 L 24.46 52.21 L 24.45 52.19 L 24.34 52.02 L 24.33 52.01 L 24.33 51.99 L 24.31 51.97 L 24.22 51.8 L 24.21 51.78 L 24.2 51.77 L 24.19 51.75 L 24.11 51.56 L 24.1 51.54 L 24.09 51.53 L 24.09 51.51 L 24.01 51.32 L 24.01 51.3 L 24 51.29 L 24 51.27 L 23.93 51.07 L 23.93 51.05 L 23.92 51.03 L 23.92 51.02 L 23.87 50.81 L 23.86 50.79 L 23.86 50.78 L 23.86 50.76 L 23.82 50.54 L 23.82 50.53 L 23.81 50.51 L 23.81 50.5 L 23.78 50.27 L 23.78 50.26 L 23.78 50.25 L 23.78 50.23 L 23.76 50 L 23.76 49.98 L 23.76 49.97 L 23.76 49.96 Z M 26.25 49.7 L 26.26 49.93 L 26.28 50.13 L 26.31 50.32 L 26.36 50.49 L 26.42 50.64 L 26.48 50.78 L 26.56 50.9 L 26.64 51.01 L 26.73 51.1 L 26.82 51.18 L 26.92 51.24 L 27.03 51.3 L 27.16 51.34 L 27.3 51.38 L 27.46 51.4 L 27.64 51.41 L 27.84 51.4 L 28.01 51.38 L 28.15 51.34 L 28.28 51.3 L 28.4 51.25 L 28.49 51.18 L 28.58 51.11 L 28.67 51.03 L 28.75 50.93 L 28.82 50.81 L 28.88 50.68 L 28.93 50.53 L 28.98 50.35 L 29.01 50.16 L 29.03 49.94 L 29.04 49.7 L 29.03 49.47 L 29.01 49.27 L 28.98 49.08 L 28.93 48.92 L 28.88 48.77 L 28.82 48.64 L 28.75 48.53 L 28.67 48.43 L 28.58 48.34 L 28.49 48.27 L 28.39 48.2 L 28.28 48.15 L 28.15 48.11 L 28.01 48.07 L 27.84 48.05 L 27.65 48.05 L 27.46 48.05 L 27.29 48.07 L 27.14 48.11 L 27.01 48.15 L 26.9 48.2 L 26.8 48.26 L 26.71 48.34 L 26.62 48.42 L 26.54 48.52 L 26.47 48.63 L 26.41 48.76 L 26.36 48.9 L 26.31 49.07 L 26.28 49.26 L 26.26 49.47 Z M 31.09 52.23 L 31.08 52.08 L 31.11 51.94 L 31.17 51.8 L 31.19 51.77 L 31.46 51.37 L 31.56 51.26 L 31.68 51.18 L 31.82 51.13 L 31.86 51.12 L 32.33 51.03 L 32.48 51.02 L 32.57 51.03 L 45.97 53.88 L 45.99 53.74 L 46 53.71 L 46.03 53.63 L 46.04 53.55 L 46.07 53.4 L 46.08 53.38 L 32.68 50.54 L 32.54 50.49 L 32.46 50.44 L 32.06 50.17 L 31.95 50.07 L 31.87 49.95 L 31.82 49.81 L 31.81 49.77 L 31.72 49.3 L 31.71 49.15 L 31.74 49.01 L 31.8 48.87 L 31.82 48.84 L 32.09 48.44 L 32.19 48.33 L 32.31 48.25 L 32.45 48.2 L 32.49 48.19 L 32.96 48.1 L 33.11 48.09 L 33.2 48.1 L 47.92 51.23 L 56.06 42.2 L 56.17 42.1 L 56.25 42.06 L 56.68 41.85 L 56.82 41.8 L 56.97 41.79 L 57.12 41.81 L 57.15 41.82 L 57.26 41.86 L 57.26 35.93 L 57.27 35.85 L 57.27 35.8 L 57.31 35.66 L 57.33 35.61 L 57.4 35.48 L 57.43 35.43 L 57.53 35.32 L 57.56 35.29 L 57.69 35.21 L 57.73 35.18 L 57.87 35.13 L 57.92 35.12 L 58.03 35.1 L 58.05 35.1 L 58.08 35.1 L 58.27 35.1 L 58.26 35.09 L 57.95 34.72 L 57.86 34.6 L 57.83 34.51 L 53.24 20.38 L 53.21 20.24 L 53.21 20.15 L 53.25 19.67 L 53.28 19.52 L 53.34 19.39 L 53.44 19.27 L 53.46 19.25 L 53.83 18.94 L 53.95 18.85 L 54.09 18.8 L 54.24 18.79 L 54.27 18.79 L 54.75 18.83 L 54.9 18.86 L 55.03 18.92 L 55.15 19.02 L 55.17 19.04 L 55.48 19.41 L 55.57 19.53 L 55.6 19.62 L 60.19 33.75 L 60.22 33.89 L 60.22 33.98 L 60.18 34.46 L 60.15 34.61 L 60.09 34.74 L 59.99 34.86 L 59.97 34.88 L 59.6 35.19 L 59.52 35.25 L 59.55 35.27 L 59.66 35.37 L 59.7 35.41 L 59.75 35.47 L 59.75 35.48 L 59.76 35.49 L 61.53 38.31 L 61.53 35.93 L 61.54 35.85 L 61.54 35.8 L 61.58 35.66 L 61.6 35.61 L 61.67 35.48 L 61.7 35.43 L 61.8 35.32 L 61.84 35.29 L 61.96 35.21 L 62 35.18 L 62.14 35.13 L 62.19 35.12 L 62.3 35.1 L 62.32 35.1 L 62.36 35.1 L 63.11 35.1 L 63.19 35.11 L 63.24 35.11 L 63.38 35.15 L 63.43 35.17 L 63.56 35.24 L 63.6 35.27 L 63.71 35.37 L 63.75 35.41 L 63.83 35.53 L 63.85 35.57 L 63.91 35.71 L 63.92 35.76 L 63.93 35.87 L 63.93 35.89 L 63.93 35.93 L 63.93 39.82 L 63.96 39.68 L 64.02 39.54 L 64.04 39.51 L 64.31 39.11 L 64.41 39 L 64.53 38.92 L 64.67 38.87 L 64.71 38.86 L 65.18 38.77 L 65.33 38.76 L 65.42 38.77 L 79.88 41.85 L 91.34 33.52 L 91.47 33.44 L 91.56 33.42 L 92.03 33.3 L 92.17 33.29 L 92.32 33.3 L 92.46 33.36 L 92.49 33.38 L 92.9 33.63 L 93.01 33.71 L 93.01 28.33 L 93.01 28.25 L 93.02 28.2 L 93.05 28.06 L 93.07 28.01 L 93.14 27.88 L 93.17 27.84 L 93.27 27.73 L 93.31 27.69 L 93.43 27.61 L 93.48 27.59 L 93.62 27.53 L 93.67 27.52 L 93.77 27.51 L 93.79 27.51 L 93.83 27.51 L 94.8 27.51 L 94.88 27.51 L 94.93 27.52 L 95.07 27.55 L 95.12 27.57 L 95.25 27.64 L 95.29 27.67 L 95.4 27.77 L 95.44 27.81 L 95.49 27.88 L 95.49 27.88 L 95.5 27.89 L 97.28 30.71 L 97.28 28.33 L 97.28 28.25 L 97.29 28.2 L 97.32 28.06 L 97.34 28.01 L 97.41 27.88 L 97.44 27.84 L 97.54 27.73 L 97.58 27.69 L 97.7 27.61 L 97.75 27.59 L 97.89 27.53 L 97.94 27.52 L 98.04 27.51 L 98.07 27.51 L 98.1 27.51 L 98.85 27.51 L 98.93 27.51 L 98.98 27.52 L 99.12 27.55 L 99.17 27.57 L 99.3 27.64 L 99.35 27.67 L 99.46 27.77 L 99.49 27.81 L 99.57 27.93 L 99.6 27.98 L 99.65 28.12 L 99.66 28.17 L 99.67 28.27 L 99.68 28.3 L 99.68 28.33 L 99.68 33.71 L 99.75 33.65 L 99.78 33.63 L 100.19 33.38 L 100.33 33.31 L 100.47 33.29 L 100.62 33.3 L 100.65 33.3 L 101.12 33.42 L 101.26 33.47 L 101.34 33.52 L 113.25 42.18 L 113.36 42.28 L 113.41 42.35 L 113.44 42.39 L 113.48 42.43 L 113.58 42.54 L 113.65 42.67 L 113.69 42.81 L 113.69 42.81 L 113.73 42.9 L 113.75 43.04 L 113.74 43.19 L 113.74 43.22 L 113.73 43.28 L 113.73 43.33 L 113.72 43.48 L 113.7 43.56 L 109.11 57.69 L 109.05 57.83 L 108.99 57.9 L 108.68 58.27 L 108.67 58.28 L 108.85 58.28 L 108.93 58.29 L 108.98 58.29 L 109.12 58.33 L 109.17 58.35 L 109.3 58.42 L 109.35 58.45 L 109.46 58.55 L 109.49 58.58 L 109.57 58.71 L 109.6 58.75 L 109.65 58.89 L 109.66 58.94 L 109.67 59.05 L 109.68 59.07 L 109.68 59.1 L 109.68 65.3 L 109.67 65.37 L 109.67 65.42 L 109.63 65.57 L 109.61 65.61 L 109.55 65.74 L 109.56 65.75 L 109.94 66.04 L 110.04 66.14 L 110.1 66.22 L 117.42 78.9 L 117.47 79.04 L 117.49 79.13 L 117.56 79.6 L 117.56 79.75 L 117.52 79.9 L 117.45 80.03 L 117.43 80.06 L 117.14 80.44 L 117.04 80.54 L 116.91 80.62 L 116.77 80.67 L 116.73 80.67 L 116.26 80.74 L 116.11 80.74 L 115.96 80.7 L 115.83 80.63 L 115.8 80.61 L 115.42 80.32 L 115.32 80.22 L 115.26 80.14 L 107.94 67.46 L 107.89 67.32 L 107.87 67.23 L 107.8 66.76 L 107.8 66.61 L 107.84 66.46 L 107.91 66.33 L 107.93 66.3 L 108.07 66.12 L 107.84 66.12 L 107.77 66.11 L 107.72 66.11 L 107.57 66.07 L 107.53 66.05 L 107.39 65.98 L 107.35 65.95 L 107.24 65.85 L 107.21 65.82 L 107.16 65.75 L 107.15 65.74 L 107.15 65.73 L 105.4 62.95 L 105.4 65.3 L 105.39 65.37 L 105.39 65.42 L 105.35 65.57 L 105.33 65.61 L 105.26 65.75 L 105.23 65.79 L 105.13 65.9 L 105.09 65.93 L 104.97 66.02 L 104.93 66.04 L 104.79 66.09 L 104.74 66.1 L 104.63 66.12 L 104.61 66.12 L 104.57 66.12 L 103.83 66.12 L 103.75 66.11 L 103.7 66.11 L 103.56 66.07 L 103.51 66.05 L 103.38 65.98 L 103.34 65.95 L 103.23 65.85 L 103.19 65.82 L 103.11 65.69 L 103.09 65.65 L 103.03 65.51 L 103.02 65.46 L 103.01 65.35 L 103.01 65.33 L 103.01 65.3 L 103.01 59.1 L 103.01 59.03 L 103.02 58.98 L 103.05 58.83 L 103.07 58.79 L 103.14 58.66 L 103.17 58.61 L 103.27 58.5 L 103.31 58.47 L 103.43 58.39 L 103.48 58.36 L 103.62 58.31 L 103.67 58.3 L 103.77 58.28 L 103.79 58.28 L 103.83 58.28 L 104.8 58.28 L 104.88 58.29 L 104.93 58.29 L 105.07 58.33 L 105.12 58.35 L 105.25 58.42 L 105.29 58.45 L 105.4 58.55 L 105.44 58.58 L 105.49 58.65 L 105.49 58.66 L 105.5 58.67 L 107.28 61.48 L 107.28 59.1 L 107.28 59.03 L 107.29 58.98 L 107.32 58.83 L 107.34 58.79 L 107.41 58.66 L 107.44 58.61 L 107.54 58.5 L 107.56 58.49 L 107.49 58.47 L 107.36 58.4 L 107.34 58.37 L 106.97 58.06 L 106.87 57.95 L 106.8 57.82 L 106.76 57.68 L 106.76 57.64 L 106.72 57.16 L 106.73 57.01 L 106.75 56.93 L 111.06 43.65 L 99.88 35.52 L 99.77 35.42 L 99.72 35.35 L 99.51 35.01 L 99.41 35.12 L 99.37 35.16 L 99.25 35.24 L 99.21 35.26 L 99.07 35.31 L 99.02 35.32 L 98.91 35.34 L 98.89 35.34 L 98.85 35.34 L 97.84 35.34 L 97.77 35.34 L 97.72 35.33 L 97.57 35.3 L 97.53 35.28 L 97.39 35.21 L 97.35 35.18 L 97.24 35.08 L 97.21 35.04 L 97.16 34.97 L 97.15 34.97 L 97.15 34.96 L 95.4 32.17 L 95.4 34.52 L 95.39 34.59 L 95.39 34.64 L 95.35 34.79 L 95.33 34.84 L 95.26 34.97 L 95.23 35.01 L 95.13 35.12 L 95.09 35.16 L 94.97 35.24 L 94.93 35.26 L 94.79 35.31 L 94.74 35.32 L 94.63 35.34 L 94.61 35.34 L 94.57 35.34 L 93.83 35.34 L 93.75 35.34 L 93.7 35.33 L 93.56 35.3 L 93.51 35.28 L 93.38 35.21 L 93.34 35.18 L 93.23 35.08 L 93.19 35.04 L 93.17 35.01 L 92.96 35.35 L 92.87 35.47 L 92.8 35.52 L 81.62 43.65 L 87.24 60.96 L 101.67 60.96 L 101.82 60.98 L 101.9 61 L 102.35 61.19 L 102.48 61.26 L 102.59 61.36 L 102.67 61.49 L 102.68 61.52 L 102.87 61.97 L 102.91 62.11 L 102.91 62.26 L 102.88 62.4 L 102.87 62.43 L 102.68 62.88 L 102.61 63.01 L 102.51 63.12 L 102.38 63.2 L 102.35 63.21 L 101.9 63.4 L 101.76 63.44 L 101.67 63.44 L 86.89 63.44 L 75.52 76.07 L 80.07 90.1 L 80.1 90.24 L 80.1 90.33 L 80.06 90.81 L 80.03 90.96 L 79.97 91.1 L 79.87 91.21 L 79.85 91.23 L 79.48 91.55 L 79.36 91.63 L 79.22 91.68 L 79.07 91.69 L 79.04 91.69 L 78.56 91.65 L 78.41 91.62 L 78.27 91.56 L 78.16 91.46 L 78.14 91.44 L 77.82 91.07 L 77.74 90.95 L 77.71 90.86 L 73.58 78.13 L 73.45 78.18 L 73.42 78.19 L 73.33 78.21 L 73.26 78.24 L 73.12 78.29 L 73.08 78.29 L 77.22 91.03 L 77.25 91.17 L 77.25 91.26 L 77.21 91.74 L 77.18 91.89 L 77.12 92.02 L 77.02 92.14 L 77 92.16 L 76.63 92.47 L 76.51 92.56 L 76.37 92.61 L 76.22 92.62 L 76.19 92.62 L 75.71 92.58 L 75.56 92.55 L 75.43 92.49 L 75.31 92.39 L 75.29 92.37 L 74.98 92 L 74.89 91.88 L 74.86 91.79 L 70.3 77.77 L 57.7 75.1 L 57.56 75.05 L 57.48 75 L 57.09 74.73 L 56.97 74.63 L 56.89 74.51 L 56.84 74.37 L 56.83 74.34 L 56.74 73.86 L 56.73 73.71 L 56.76 73.57 L 56.82 73.43 L 56.84 73.4 L 57.11 73.01 L 57.21 72.89 L 57.33 72.81 L 57.47 72.76 L 57.5 72.75 L 57.98 72.66 L 58.13 72.65 L 58.22 72.66 L 72.52 75.7 L 84.94 61.9 L 79.2 44.25 L 64.9 41.21 L 64.76 41.16 L 64.68 41.11 L 64.28 40.84 L 64.17 40.74 L 64.09 40.62 L 64.04 40.48 L 64.03 40.44 L 63.94 39.97 L 63.93 39.84 L 63.93 42.12 L 63.93 42.19 L 63.92 42.24 L 63.89 42.39 L 63.87 42.43 L 63.8 42.57 L 63.77 42.61 L 63.67 42.72 L 63.63 42.75 L 63.51 42.84 L 63.46 42.86 L 63.32 42.91 L 63.27 42.92 L 63.17 42.94 L 63.14 42.94 L 63.11 42.94 L 62.1 42.94 L 62.03 42.93 L 61.98 42.93 L 61.83 42.89 L 61.78 42.87 L 61.65 42.8 L 61.61 42.78 L 61.5 42.68 L 61.47 42.64 L 61.41 42.57 L 61.41 42.56 L 61.4 42.55 L 59.65 39.77 L 59.65 42.12 L 59.65 42.19 L 59.64 42.24 L 59.61 42.39 L 59.59 42.43 L 59.52 42.57 L 59.49 42.61 L 59.39 42.72 L 59.35 42.75 L 59.23 42.84 L 59.18 42.86 L 59.04 42.91 L 58.99 42.92 L 58.89 42.94 L 58.86 42.94 L 58.83 42.94 L 58.21 42.94 L 58.22 43.02 L 58.2 43.17 L 58.19 43.2 L 58.03 43.66 L 57.96 43.79 L 57.9 43.86 L 48.61 54.18 L 52.98 67.64 L 53.01 67.78 L 53.01 67.87 L 52.97 68.35 L 52.94 68.5 L 52.88 68.64 L 52.78 68.75 L 52.76 68.77 L 52.39 69.08 L 52.32 69.13 L 52.35 69.15 L 52.46 69.25 L 52.49 69.29 L 52.54 69.36 L 52.55 69.36 L 52.55 69.37 L 54.33 72.19 L 54.33 69.81 L 54.34 69.73 L 54.34 69.68 L 54.38 69.54 L 54.4 69.49 L 54.47 69.36 L 54.5 69.32 L 54.59 69.21 L 54.63 69.17 L 54.76 69.09 L 54.8 69.07 L 54.94 69.02 L 54.99 69 L 55.1 68.99 L 55.12 68.99 L 55.15 68.99 L 55.91 68.99 L 55.98 68.99 L 56.03 69 L 56.18 69.03 L 56.23 69.05 L 56.36 69.12 L 56.4 69.15 L 56.51 69.25 L 56.54 69.29 L 56.63 69.41 L 56.65 69.46 L 56.7 69.6 L 56.71 69.65 L 56.73 69.75 L 56.73 69.78 L 56.73 69.81 L 56.73 76 L 56.73 76.08 L 56.72 76.13 L 56.68 76.27 L 56.67 76.32 L 56.6 76.45 L 56.57 76.49 L 56.47 76.6 L 56.43 76.64 L 56.31 76.72 L 56.26 76.74 L 56.12 76.79 L 56.07 76.81 L 55.96 76.82 L 55.94 76.82 L 55.91 76.82 L 54.9 76.82 L 54.82 76.82 L 54.77 76.81 L 54.63 76.78 L 54.58 76.76 L 54.45 76.69 L 54.41 76.66 L 54.3 76.56 L 54.26 76.52 L 54.21 76.45 L 54.21 76.45 L 54.2 76.44 L 52.45 73.65 L 52.45 76 L 52.45 76.08 L 52.44 76.13 L 52.4 76.27 L 52.39 76.32 L 52.32 76.45 L 52.29 76.49 L 52.19 76.6 L 52.15 76.64 L 52.03 76.72 L 51.98 76.74 L 51.84 76.79 L 51.79 76.81 L 51.68 76.82 L 51.66 76.82 L 51.63 76.82 L 51.01 76.82 L 51.02 76.91 L 51 77.06 L 50.99 77.09 L 50.83 77.55 L 50.76 77.68 L 50.7 77.75 L 40.93 88.6 L 40.82 88.7 L 40.74 88.74 L 40.31 88.95 L 40.17 89 L 40.02 89.01 L 39.87 88.99 L 39.84 88.98 L 39.38 88.82 L 39.25 88.75 L 39.14 88.65 L 39.05 88.53 L 39.04 88.5 L 38.83 88.07 L 38.78 87.93 L 38.77 87.78 L 38.79 87.63 L 38.8 87.6 L 38.96 87.14 L 39.03 87.01 L 39.09 86.94 L 48.86 76.09 L 48.97 75.99 L 49.05 75.95 L 49.48 75.74 L 49.62 75.69 L 49.77 75.68 L 49.92 75.7 L 49.95 75.71 L 50.06 75.75 L 50.06 69.81 L 50.06 69.73 L 50.07 69.68 L 50.11 69.54 L 50.12 69.49 L 50.19 69.36 L 50.22 69.32 L 50.32 69.21 L 50.36 69.17 L 50.49 69.09 L 50.53 69.07 L 50.67 69.02 L 50.72 69 L 50.83 68.99 L 50.85 68.99 L 50.88 68.99 L 51.06 68.99 L 51.05 68.98 L 50.74 68.61 L 50.65 68.49 L 50.62 68.4 L 46.79 56.6 L 32.05 53.47 L 31.91 53.42 L 31.83 53.37 L 31.43 53.1 L 31.32 53 L 31.24 52.88 L 31.19 52.74 L 31.18 52.7 Z M 75.24 96.08 L 75.24 96.06 L 75.24 96.05 L 75.24 96.03 L 75.25 95.67 L 75.25 95.64 L 75.26 95.63 L 75.26 95.6 L 75.3 95.26 L 75.3 95.24 L 75.3 95.22 L 75.31 95.19 L 75.37 94.87 L 75.38 94.85 L 75.38 94.83 L 75.39 94.8 L 75.48 94.5 L 75.49 94.47 L 75.49 94.45 L 75.5 94.42 L 75.62 94.14 L 75.63 94.11 L 75.64 94.09 L 75.66 94.06 L 75.8 93.8 L 75.81 93.77 L 75.82 93.75 L 75.84 93.73 L 76.01 93.49 L 76.03 93.46 L 76.04 93.44 L 76.06 93.41 L 76.25 93.19 L 76.28 93.17 L 76.29 93.15 L 76.32 93.13 L 76.53 92.93 L 76.56 92.91 L 76.58 92.89 L 76.6 92.87 L 76.84 92.7 L 76.87 92.68 L 76.89 92.67 L 76.92 92.65 L 77.17 92.51 L 77.2 92.49 L 77.22 92.48 L 77.25 92.47 L 77.52 92.35 L 77.55 92.34 L 77.57 92.33 L 77.6 92.32 L 77.9 92.23 L 77.92 92.22 L 77.94 92.22 L 77.97 92.21 L 78.29 92.14 L 78.31 92.14 L 78.33 92.14 L 78.36 92.13 L 78.69 92.09 L 78.71 92.09 L 78.73 92.09 L 78.76 92.09 L 79.11 92.07 L 79.13 92.07 L 79.14 92.07 L 79.16 92.07 L 79.39 92.08 L 79.41 92.08 L 79.42 92.08 L 79.44 92.08 L 79.66 92.1 L 79.68 92.1 L 79.69 92.1 L 79.71 92.1 L 79.92 92.13 L 79.94 92.14 L 79.95 92.14 L 79.97 92.14 L 80.18 92.18 L 80.2 92.19 L 80.21 92.19 L 80.23 92.19 L 80.43 92.25 L 80.45 92.25 L 80.46 92.26 L 80.48 92.26 L 80.68 92.33 L 80.7 92.33 L 80.71 92.34 L 80.73 92.35 L 80.91 92.42 L 80.93 92.43 L 80.95 92.44 L 80.97 92.45 L 81.14 92.54 L 81.16 92.55 L 81.18 92.55 L 81.2 92.56 L 81.36 92.66 L 81.38 92.67 L 81.4 92.68 L 81.42 92.7 L 81.57 92.81 L 81.59 92.82 L 81.61 92.83 L 81.62 92.84 L 81.77 92.96 L 81.79 92.98 L 81.8 92.99 L 81.82 93.01 L 81.96 93.14 L 81.97 93.15 L 81.99 93.17 L 82 93.18 L 82.13 93.32 L 82.14 93.34 L 82.16 93.35 L 82.17 93.37 L 82.29 93.53 L 82.3 93.54 L 82.31 93.56 L 82.32 93.58 L 82.43 93.74 L 82.44 93.76 L 82.45 93.77 L 82.46 93.79 L 82.56 93.96 L 82.57 93.98 L 82.57 94 L 82.58 94.01 L 82.67 94.2 L 82.68 94.22 L 82.68 94.23 L 82.69 94.25 L 82.77 94.44 L 82.77 94.46 L 82.78 94.47 L 82.78 94.49 L 82.85 94.69 L 82.85 94.71 L 82.86 94.72 L 82.86 94.74 L 82.91 94.95 L 82.92 94.96 L 82.92 94.98 L 82.92 94.99 L 82.96 95.21 L 82.97 95.23 L 82.97 95.24 L 82.97 95.26 L 83 95.48 L 83 95.5 L 83 95.51 L 83 95.52 L 83.02 95.76 L 83.02 95.77 L 83.02 95.78 L 83.02 95.8 L 83.03 96.04 L 83.03 96.05 L 83.03 96.06 L 83.03 96.08 L 83.02 96.31 L 83.02 96.33 L 83.02 96.34 L 83.02 96.36 L 83 96.59 L 83 96.6 L 83 96.62 L 83 96.63 L 82.97 96.86 L 82.97 96.87 L 82.97 96.89 L 82.96 96.9 L 82.92 97.12 L 82.92 97.14 L 82.92 97.15 L 82.91 97.17 L 82.86 97.38 L 82.85 97.39 L 82.85 97.41 L 82.84 97.42 L 82.78 97.63 L 82.77 97.64 L 82.77 97.66 L 82.76 97.68 L 82.69 97.87 L 82.68 97.89 L 82.68 97.9 L 82.67 97.92 L 82.58 98.1 L 82.57 98.12 L 82.56 98.14 L 82.55 98.15 L 82.46 98.33 L 82.45 98.35 L 82.44 98.36 L 82.43 98.38 L 82.32 98.55 L 82.31 98.57 L 82.3 98.58 L 82.28 98.6 L 82.17 98.75 L 82.15 98.77 L 82.14 98.78 L 82.13 98.8 L 82 98.95 L 81.98 98.96 L 81.97 98.97 L 81.96 98.99 L 81.82 99.13 L 81.8 99.14 L 81.79 99.15 L 81.77 99.17 L 81.62 99.29 L 81.61 99.31 L 81.59 99.32 L 81.58 99.33 L 81.42 99.44 L 81.4 99.46 L 81.39 99.46 L 81.37 99.48 L 81.2 99.58 L 81.18 99.59 L 81.17 99.6 L 81.15 99.61 L 80.97 99.7 L 80.95 99.71 L 80.94 99.72 L 80.92 99.72 L 80.73 99.8 L 80.71 99.81 L 80.7 99.82 L 80.68 99.82 L 80.48 99.89 L 80.46 99.9 L 80.45 99.9 L 80.43 99.91 L 80.23 99.96 L 80.21 99.97 L 80.2 99.97 L 80.18 99.98 L 79.97 100.02 L 79.95 100.02 L 79.94 100.02 L 79.92 100.03 L 79.7 100.06 L 79.68 100.06 L 79.67 100.06 L 79.65 100.06 L 79.43 100.08 L 79.41 100.08 L 79.4 100.08 L 79.38 100.08 L 79.15 100.09 L 79.14 100.09 L 79.12 100.09 L 79.11 100.09 L 78.87 100.08 L 78.86 100.08 L 78.85 100.08 L 78.83 100.08 L 78.6 100.06 L 78.59 100.06 L 78.57 100.06 L 78.56 100.06 L 78.34 100.03 L 78.32 100.03 L 78.31 100.02 L 78.29 100.02 L 78.08 99.98 L 78.06 99.97 L 78.05 99.97 L 78.03 99.97 L 77.83 99.91 L 77.81 99.91 L 77.79 99.9 L 77.77 99.89 L 77.58 99.83 L 77.56 99.82 L 77.55 99.82 L 77.53 99.81 L 77.34 99.73 L 77.32 99.72 L 77.31 99.71 L 77.29 99.7 L 77.11 99.61 L 77.09 99.6 L 77.08 99.6 L 77.06 99.58 L 76.89 99.48 L 76.87 99.47 L 76.86 99.46 L 76.84 99.45 L 76.68 99.34 L 76.66 99.32 L 76.65 99.31 L 76.63 99.3 L 76.48 99.17 L 76.46 99.16 L 76.45 99.15 L 76.44 99.13 L 76.3 99 L 76.28 98.98 L 76.27 98.97 L 76.26 98.95 L 76.13 98.8 L 76.11 98.79 L 76.1 98.77 L 76.09 98.76 L 75.97 98.6 L 75.96 98.58 L 75.95 98.57 L 75.94 98.55 L 75.83 98.38 L 75.82 98.36 L 75.81 98.35 L 75.8 98.33 L 75.7 98.16 L 75.69 98.14 L 75.69 98.12 L 75.68 98.11 L 75.59 97.92 L 75.59 97.9 L 75.58 97.89 L 75.57 97.87 L 75.5 97.68 L 75.49 97.66 L 75.49 97.64 L 75.48 97.63 L 75.42 97.42 L 75.41 97.41 L 75.41 97.39 L 75.41 97.38 L 75.36 97.17 L 75.35 97.15 L 75.35 97.14 L 75.35 97.12 L 75.31 96.9 L 75.3 96.89 L 75.3 96.87 L 75.3 96.86 L 75.27 96.63 L 75.27 96.62 L 75.27 96.6 L 75.27 96.59 L 75.25 96.36 L 75.25 96.34 L 75.25 96.33 L 75.25 96.32 Z M 77.74 96.06 L 77.75 96.28 L 77.77 96.49 L 77.8 96.68 L 77.85 96.85 L 77.9 97 L 77.97 97.14 L 78.04 97.26 L 78.13 97.37 L 78.22 97.46 L 78.31 97.54 L 78.41 97.6 L 78.52 97.66 L 78.65 97.7 L 78.79 97.73 L 78.95 97.76 L 79.13 97.76 L 79.32 97.76 L 79.49 97.74 L 79.64 97.7 L 79.77 97.66 L 79.88 97.61 L 79.98 97.54 L 80.07 97.47 L 80.15 97.39 L 80.23 97.28 L 80.3 97.17 L 80.36 97.04 L 80.42 96.89 L 80.46 96.71 L 80.5 96.52 L 80.52 96.3 L 80.53 96.06 L 80.52 95.83 L 80.5 95.62 L 80.46 95.44 L 80.42 95.27 L 80.37 95.13 L 80.3 95 L 80.23 94.89 L 80.15 94.78 L 80.07 94.7 L 79.98 94.62 L 79.88 94.56 L 79.77 94.51 L 79.64 94.47 L 79.49 94.43 L 79.33 94.41 L 79.14 94.4 L 78.95 94.41 L 78.78 94.43 L 78.63 94.47 L 78.5 94.51 L 78.39 94.56 L 78.29 94.62 L 78.19 94.7 L 78.11 94.78 L 78.03 94.88 L 77.96 94.99 L 77.9 95.12 L 77.84 95.26 L 77.8 95.43 L 77.77 95.62 L 77.75 95.83 Z M 82.64 45.11 L 82.61 44.97 L 82.61 44.88 L 82.65 44.4 L 82.68 44.25 L 82.74 44.12 L 82.84 44 L 82.86 43.98 L 83.23 43.67 L 83.35 43.58 L 83.49 43.53 L 83.64 43.52 L 83.67 43.52 L 84.15 43.56 L 84.3 43.59 L 84.43 43.65 L 84.55 43.75 L 84.57 43.77 L 84.88 44.14 L 84.97 44.26 L 85 44.35 L 89.57 58.42 L 89.6 58.56 L 89.6 58.65 L 89.56 59.13 L 89.53 59.28 L 89.47 59.41 L 89.37 59.53 L 89.35 59.55 L 88.98 59.86 L 88.86 59.95 L 88.72 60 L 88.57 60.01 L 88.54 60.01 L 88.06 59.97 L 87.91 59.94 L 87.78 59.88 L 87.66 59.78 L 87.64 59.76 L 87.33 59.39 L 87.24 59.27 L 87.21 59.18 Z M 99.74 38.76 L 99.72 38.62 L 99.73 38.47 L 99.73 38.44 L 99.85 37.97 L 99.9 37.83 L 99.98 37.7 L 100.09 37.6 L 100.12 37.59 L 100.53 37.34 L 100.67 37.27 L 100.81 37.25 L 100.96 37.26 L 100.99 37.26 L 101.46 37.38 L 101.6 37.43 L 101.68 37.48 L 109.38 43.08 L 109.49 43.18 L 109.54 43.25 L 109.79 43.66 L 109.86 43.8 L 109.88 43.94 L 109.87 44.09 L 109.87 44.12 L 109.75 44.59 L 109.7 44.73 L 109.62 44.86 L 109.51 44.96 L 109.48 44.97 L 109.07 45.22 L 108.93 45.29 L 108.79 45.31 L 108.64 45.3 L 108.61 45.3 L 108.14 45.18 L 108 45.13 L 107.92 45.08 L 100.22 39.48 L 100.11 39.38 L 100.06 39.31 L 99.81 38.9 Z" fill="#fff" stroke-width="0" stroke-linecap="round" stroke-linejoin="round" opacity="0.5" stroke="none" class="halo" /></g><g class="xpict-mol" transform="translate(0,0)"><g class="layer-bonds" id="bonds"><path d="M 116.34 79.52 L 109.02 66.84" fill="none" stroke-width="1.26" stroke-linecap="round" stroke-linejoin="round" opacity="1" stroke="#111" class="bond-0 atom-0 atom-1 bond bond-skeleton" /><path d="M 107.93 57.31 L 112.52 43.18" fill="none" stroke-width="1.26" stroke-linecap="round" stroke-linejoin="round" opacity="1" stroke="#111" class="bond-1 atom-1 atom-2 bond bond-skeleton" /><path d="M 112.52 43.18 L 100.61 34.52" fill="none" stroke-width="1.26" stroke-linecap="round" stroke-linejoin="round" opacity="1" stroke="#111" class="bond-2 atom-2 atom-3 bond bond-skeleton" /><path d="M 108.65 44.08 L 100.95 38.48" fill="none" stroke-width="1.26" stroke-linecap="round" stroke-linejoin="round" opacity="1" stroke="#111" class="bond-2 atom-2 atom-3 bond bond-offset" /><path d="M 92.07 34.52 L 80.16 43.18" fill="none" stroke-width="1.26" stroke-linecap="round" stroke-linejoin="round" opacity="1" stroke="#111" class="bond-3 atom-3 atom-4 bond bond-skeleton" /><path d="M 80.16 43.18 L 86.34 62.2" fill="none" stroke-width="1.26" stroke-linecap="round" stroke-linejoin="round" opacity="1" stroke="#111" class="bond-4 atom-4 atom-5 bond bond-skeleton" /><path d="M 83.82 44.73 L 88.39 58.8" fill="none" stroke-width="1.26" stroke-linecap="round" stroke-linejoin="round" opacity="1" stroke="#111" class="bond-4 atom-4 atom-5 bond bond-offset" /><path d="M 101.67 62.2 L 86.34 62.2" fill="none" stroke-width="1.26" stroke-linecap="round" stroke-linejoin="round" opacity="1" stroke="#111" class="bond-5 atom-1 atom-5 bond bond-skeleton" /><path d="M 86.34 62.2 L 72.96 77.06" fill="none" stroke-width="1.26" stroke-linecap="round" stroke-linejoin="round" opacity="1" stroke="#111" class="bond-6 atom-5 atom-6 bond bond-skeleton" /><path d="M 74.12 75.78 L 78.89 90.48" fill="none" stroke-width="1.26" stroke-linecap="round" stroke-linejoin="round" opacity="1" stroke="#111" class="bond-7 atom-6 atom-7 bond bond-offset" /><path d="M 71.26 76.7 L 76.04 91.41" fill="none" stroke-width="1.26" stroke-linecap="round" stroke-linejoin="round" opacity="1" stroke="#111" class="bond-7 atom-6 atom-7 bond bond-offset" /><path d="M 72.96 77.06 L 57.96 73.88" fill="none" stroke-width="1.26" stroke-linecap="round" stroke-linejoin="round" opacity="1" stroke="#111" class="bond-8 atom-6 atom-8 bond bond-skeleton" /><path d="M 51.8 68.02 L 47.21 53.88" fill="none" stroke-width="1.26" stroke-linecap="round" stroke-linejoin="round" opacity="1" stroke="#111" class="bond-9 atom-8 atom-9 bond bond-skeleton" /><path d="M 47.75 55.53 L 32.31 52.25" fill="none" stroke-width="1.26" stroke-linecap="round" stroke-linejoin="round" opacity="1" stroke="#111" class="bond-10 atom-9 atom-10 bond bond-offset" /><path d="M 48.37 52.6 L 32.94 49.32" fill="none" stroke-width="1.26" stroke-linecap="round" stroke-linejoin="round" opacity="1" stroke="#111" class="bond-10 atom-9 atom-10 bond bond-offset" /><path d="M 47.21 53.88 L 56.98 43.03" fill="none" stroke-width="1.26" stroke-linecap="round" stroke-linejoin="round" opacity="1" stroke="#111" class="bond-11 atom-9 atom-11 bond bond-skeleton" /><path d="M 80.16 43.18 L 65.16 39.99" fill="none" stroke-width="1.26" stroke-linecap="round" stroke-linejoin="round" opacity="1" stroke="#111" class="bond-12 atom-4 atom-11 bond bond-skeleton" /><path d="M 59.01 34.13 L 54.42 20" fill="none" stroke-width="1.26" stroke-linecap="round" stroke-linejoin="round" opacity="1" stroke="#111" class="bond-13 atom-11 atom-12 bond bond-skeleton" /><path d="M 49.78 76.92 L 40.01 87.77" fill="none" stroke-width="1.26" stroke-linecap="round" stroke-linejoin="round" opacity="1" stroke="#111" class="bond-14 atom-8 atom-13 bond bond-skeleton" /></g><g class="layer-labels" id="labels"><path d="M 103.62 65.3 L 103.62 59.1 L 103.62 59.05 L 103.64 59.01 L 103.67 58.96 L 103.71 58.93 L 103.76 58.91 L 103.81 58.9 L 103.83 58.89 L 104.8 58.89 L 104.85 58.9 L 104.9 58.92 L 104.94 58.95 L 104.98 58.99 L 104.98 58.99 L 107.9 63.62 L 107.9 63.53 L 107.9 63.53 L 107.89 63.39 L 107.89 63.39 L 107.89 63.27 L 107.89 63.27 L 107.89 63.17 L 107.89 63.17 L 107.89 59.1 L 107.9 59.05 L 107.91 59.01 L 107.94 58.96 L 107.98 58.93 L 108.03 58.91 L 108.08 58.9 L 108.1 58.89 L 108.85 58.89 L 108.91 58.9 L 108.95 58.92 L 109 58.95 L 109.03 58.99 L 109.05 59.03 L 109.06 59.08 L 109.06 59.1 L 109.06 65.3 L 109.06 65.35 L 109.04 65.39 L 109.01 65.44 L 108.97 65.47 L 108.93 65.49 L 108.88 65.51 L 108.85 65.51 L 107.84 65.51 L 107.79 65.5 L 107.75 65.48 L 107.7 65.45 L 107.67 65.41 L 107.67 65.41 L 104.77 60.8 L 104.78 61.18 L 104.78 61.18 L 104.78 65.3 L 104.78 65.35 L 104.76 65.39 L 104.73 65.44 L 104.69 65.47 L 104.65 65.49 L 104.6 65.51 L 104.57 65.51 L 103.83 65.51 L 103.78 65.5 L 103.73 65.48 L 103.69 65.45 L 103.65 65.41 L 103.63 65.37 L 103.62 65.32 Z" fill="#111" stroke-width="0" stroke-linecap="round" stroke-linejoin="round" opacity="1" stroke="none" class="atom-1 label" data-text="N" /><path d="M 93.62 34.52 L 93.62 28.33 L 93.62 28.28 L 93.64 28.23 L 93.67 28.19 L 93.71 28.15 L 93.76 28.13 L 93.81 28.12 L 93.83 28.12 L 94.8 28.12 L 94.85 28.12 L 94.9 28.14 L 94.94 28.17 L 94.98 28.21 L 94.98 28.22 L 97.9 32.84 L 97.9 32.75 L 97.9 32.75 L 97.89 32.62 L 97.89 32.62 L 97.89 32.5 L 97.89 32.49 L 97.89 32.39 L 97.89 32.39 L 97.89 28.33 L 97.9 28.28 L 97.91 28.23 L 97.94 28.19 L 97.98 28.15 L 98.03 28.13 L 98.08 28.12 L 98.1 28.12 L 98.85 28.12 L 98.91 28.12 L 98.95 28.14 L 99 28.17 L 99.03 28.21 L 99.05 28.26 L 99.06 28.31 L 99.06 28.33 L 99.06 34.52 L 99.06 34.57 L 99.04 34.62 L 99.01 34.66 L 98.97 34.69 L 98.93 34.72 L 98.88 34.73 L 98.85 34.73 L 97.84 34.73 L 97.79 34.72 L 97.75 34.71 L 97.7 34.68 L 97.67 34.64 L 97.67 34.63 L 94.77 30.03 L 94.78 30.4 L 94.78 30.41 L 94.78 34.52 L 94.78 34.57 L 94.76 34.62 L 94.73 34.66 L 94.69 34.69 L 94.65 34.72 L 94.6 34.73 L 94.57 34.73 L 93.83 34.73 L 93.78 34.72 L 93.73 34.71 L 93.69 34.68 L 93.65 34.64 L 93.63 34.59 L 93.62 34.54 Z" fill="#111" stroke-width="0" stroke-linecap="round" stroke-linejoin="round" opacity="1" stroke="none" class="atom-3 label" data-text="N" /><path d="M 75.86 96.3 L 75.85 96.06 L 75.85 96.05 L 75.87 95.69 L 75.87 95.67 L 75.9 95.33 L 75.91 95.31 L 75.97 94.99 L 75.98 94.97 L 76.06 94.67 L 76.07 94.65 L 76.19 94.37 L 76.2 94.35 L 76.34 94.09 L 76.35 94.07 L 76.51 93.83 L 76.53 93.82 L 76.72 93.6 L 76.73 93.58 L 76.95 93.38 L 76.97 93.37 L 77.2 93.2 L 77.22 93.18 L 77.47 93.04 L 77.49 93.03 L 77.76 92.91 L 77.79 92.91 L 78.08 92.81 L 78.1 92.81 L 78.41 92.74 L 78.43 92.74 L 78.76 92.7 L 78.78 92.7 L 79.13 92.69 L 79.14 92.69 L 79.38 92.69 L 79.39 92.69 L 79.61 92.71 L 79.62 92.71 L 79.84 92.74 L 79.85 92.74 L 80.06 92.78 L 80.07 92.79 L 80.28 92.84 L 80.29 92.84 L 80.48 92.91 L 80.5 92.91 L 80.68 92.99 L 80.69 93 L 80.87 93.08 L 80.88 93.09 L 81.05 93.19 L 81.07 93.2 L 81.22 93.31 L 81.24 93.32 L 81.39 93.44 L 81.4 93.45 L 81.54 93.58 L 81.55 93.59 L 81.67 93.73 L 81.68 93.75 L 81.8 93.9 L 81.81 93.91 L 81.92 94.08 L 81.93 94.09 L 82.02 94.26 L 82.03 94.27 L 82.12 94.46 L 82.12 94.47 L 82.2 94.66 L 82.2 94.68 L 82.26 94.87 L 82.27 94.89 L 82.32 95.09 L 82.32 95.11 L 82.36 95.32 L 82.36 95.33 L 82.39 95.56 L 82.39 95.57 L 82.41 95.8 L 82.41 95.81 L 82.42 96.05 L 82.42 96.06 L 82.41 96.3 L 82.41 96.31 L 82.39 96.54 L 82.39 96.55 L 82.36 96.78 L 82.36 96.79 L 82.32 97.01 L 82.32 97.02 L 82.26 97.23 L 82.26 97.24 L 82.2 97.44 L 82.19 97.45 L 82.12 97.65 L 82.11 97.66 L 82.02 97.85 L 82.02 97.86 L 81.92 98.04 L 81.91 98.05 L 81.81 98.21 L 81.8 98.23 L 81.68 98.38 L 81.67 98.4 L 81.54 98.54 L 81.53 98.55 L 81.39 98.69 L 81.38 98.7 L 81.23 98.82 L 81.22 98.83 L 81.06 98.94 L 81.05 98.95 L 80.88 99.06 L 80.87 99.06 L 80.69 99.16 L 80.67 99.16 L 80.49 99.24 L 80.48 99.25 L 80.28 99.31 L 80.27 99.32 L 80.07 99.37 L 80.05 99.38 L 79.85 99.42 L 79.83 99.42 L 79.62 99.45 L 79.6 99.45 L 79.38 99.47 L 79.37 99.47 L 79.14 99.48 L 79.12 99.48 L 78.89 99.47 L 78.88 99.47 L 78.65 99.45 L 78.64 99.45 L 78.42 99.42 L 78.41 99.42 L 78.2 99.38 L 78.19 99.37 L 77.99 99.32 L 77.97 99.32 L 77.78 99.25 L 77.76 99.24 L 77.58 99.17 L 77.57 99.16 L 77.39 99.07 L 77.38 99.06 L 77.21 98.96 L 77.19 98.95 L 77.04 98.84 L 77.02 98.83 L 76.88 98.7 L 76.86 98.69 L 76.73 98.56 L 76.72 98.55 L 76.59 98.4 L 76.58 98.39 L 76.46 98.23 L 76.45 98.22 L 76.35 98.05 L 76.34 98.04 L 76.24 97.86 L 76.24 97.85 L 76.15 97.66 L 76.15 97.65 L 76.07 97.46 L 76.07 97.44 L 76 97.24 L 76 97.23 L 75.95 97.02 L 75.95 97.01 L 75.91 96.79 L 75.91 96.78 L 75.88 96.55 L 75.88 96.54 L 75.86 96.31 Z M 77.13 96.06 L 77.13 96.33 L 77.16 96.58 L 77.2 96.82 L 77.26 97.04 L 77.34 97.24 L 77.43 97.43 L 77.54 97.61 L 77.66 97.77 L 77.8 97.91 L 77.95 98.03 L 78.11 98.14 L 78.28 98.22 L 78.47 98.29 L 78.68 98.34 L 78.9 98.37 L 79.13 98.38 L 79.37 98.37 L 79.6 98.34 L 79.81 98.29 L 80 98.23 L 80.17 98.14 L 80.34 98.04 L 80.48 97.93 L 80.62 97.79 L 80.74 97.63 L 80.84 97.46 L 80.93 97.27 L 81.01 97.07 L 81.06 96.84 L 81.11 96.6 L 81.13 96.34 L 81.14 96.06 L 81.13 95.79 L 81.11 95.54 L 81.06 95.31 L 81 95.09 L 80.93 94.89 L 80.84 94.7 L 80.73 94.53 L 80.61 94.38 L 80.48 94.24 L 80.33 94.12 L 80.17 94.02 L 80 93.94 L 79.81 93.88 L 79.6 93.83 L 79.38 93.8 L 79.14 93.79 L 78.9 93.8 L 78.67 93.83 L 78.47 93.88 L 78.27 93.94 L 78.1 94.02 L 77.94 94.12 L 77.79 94.24 L 77.65 94.37 L 77.53 94.52 L 77.43 94.69 L 77.33 94.88 L 77.26 95.08 L 77.2 95.3 L 77.16 95.53 L 77.13 95.78 Z" fill="#111" stroke-width="0" stroke-linecap="round" stroke-linejoin="round" opacity="1" stroke="none" class="atom-7 label" data-text="O" /><path d="M 50.67 76 L 50.67 69.81 L 50.68 69.76 L 50.7 69.71 L 50.73 69.67 L 50.76 69.64 L 50.81 69.61 L 50.86 69.6 L 50.88 69.6 L 51.86 69.6 L 51.91 69.61 L 51.96 69.62 L 52 69.65 L 52.03 69.69 L 52.03 69.7 L 54.95 74.33 L 54.95 74.23 L 54.95 74.23 L 54.95 74.1 L 54.95 74.1 L 54.94 73.98 L 54.94 73.98 L 54.94 73.87 L 54.94 73.87 L 54.94 69.81 L 54.95 69.76 L 54.97 69.71 L 55 69.67 L 55.04 69.64 L 55.08 69.61 L 55.13 69.6 L 55.15 69.6 L 55.91 69.6 L 55.96 69.61 L 56.01 69.62 L 56.05 69.65 L 56.08 69.69 L 56.11 69.74 L 56.12 69.79 L 56.12 69.81 L 56.12 76 L 56.11 76.05 L 56.09 76.1 L 56.07 76.14 L 56.03 76.17 L 55.98 76.2 L 55.93 76.21 L 55.91 76.21 L 54.9 76.21 L 54.85 76.2 L 54.8 76.19 L 54.76 76.16 L 54.72 76.12 L 54.72 76.11 L 51.83 71.51 L 51.84 71.88 L 51.84 71.89 L 51.84 76 L 51.83 76.05 L 51.81 76.1 L 51.79 76.14 L 51.75 76.17 L 51.7 76.2 L 51.65 76.21 L 51.63 76.21 L 50.88 76.21 L 50.83 76.2 L 50.78 76.19 L 50.74 76.16 L 50.71 76.12 L 50.68 76.07 L 50.67 76.02 Z" fill="#111" stroke-width="0" stroke-linecap="round" stroke-linejoin="round" opacity="1" stroke="none" class="atom-8 label" data-text="N" /><path d="M 24.37 49.94 L 24.37 49.7 L 24.37 49.69 L 24.38 49.33 L 24.38 49.31 L 24.42 48.97 L 24.42 48.95 L 24.48 48.63 L 24.49 48.61 L 24.58 48.31 L 24.58 48.29 L 24.7 48.01 L 24.71 47.99 L 24.85 47.73 L 24.86 47.71 L 25.03 47.48 L 25.04 47.46 L 25.23 47.24 L 25.25 47.22 L 25.46 47.02 L 25.48 47.01 L 25.71 46.84 L 25.73 46.83 L 25.98 46.68 L 26.01 46.67 L 26.28 46.55 L 26.3 46.55 L 26.59 46.45 L 26.61 46.45 L 26.92 46.38 L 26.94 46.38 L 27.28 46.34 L 27.29 46.34 L 27.64 46.33 L 27.66 46.33 L 27.89 46.33 L 27.9 46.33 L 28.13 46.35 L 28.14 46.35 L 28.35 46.38 L 28.37 46.38 L 28.57 46.43 L 28.59 46.43 L 28.79 46.48 L 28.8 46.49 L 29 46.55 L 29.01 46.55 L 29.19 46.63 L 29.21 46.64 L 29.38 46.73 L 29.4 46.73 L 29.57 46.83 L 29.58 46.84 L 29.74 46.95 L 29.75 46.96 L 29.9 47.08 L 29.91 47.09 L 30.05 47.22 L 30.06 47.23 L 30.19 47.38 L 30.2 47.39 L 30.32 47.54 L 30.32 47.55 L 30.43 47.72 L 30.44 47.73 L 30.54 47.9 L 30.54 47.92 L 30.63 48.1 L 30.63 48.11 L 30.71 48.3 L 30.71 48.32 L 30.78 48.52 L 30.78 48.53 L 30.83 48.74 L 30.83 48.75 L 30.87 48.96 L 30.88 48.98 L 30.9 49.2 L 30.91 49.21 L 30.92 49.44 L 30.92 49.45 L 30.93 49.69 L 30.93 49.7 L 30.92 49.94 L 30.92 49.95 L 30.91 50.18 L 30.9 50.19 L 30.88 50.42 L 30.87 50.43 L 30.83 50.65 L 30.83 50.66 L 30.78 50.87 L 30.77 50.88 L 30.71 51.08 L 30.71 51.09 L 30.63 51.29 L 30.63 51.3 L 30.54 51.49 L 30.53 51.5 L 30.43 51.68 L 30.43 51.69 L 30.32 51.86 L 30.31 51.87 L 30.19 52.02 L 30.18 52.04 L 30.05 52.18 L 30.04 52.19 L 29.9 52.33 L 29.89 52.34 L 29.74 52.46 L 29.73 52.47 L 29.57 52.59 L 29.56 52.59 L 29.39 52.7 L 29.38 52.71 L 29.2 52.8 L 29.19 52.8 L 29 52.88 L 28.99 52.89 L 28.8 52.96 L 28.78 52.96 L 28.58 53.01 L 28.57 53.02 L 28.36 53.06 L 28.35 53.06 L 28.13 53.09 L 28.12 53.09 L 27.89 53.11 L 27.88 53.11 L 27.65 53.12 L 27.64 53.12 L 27.4 53.11 L 27.39 53.11 L 27.17 53.09 L 27.15 53.09 L 26.94 53.06 L 26.92 53.06 L 26.71 53.02 L 26.7 53.02 L 26.5 52.96 L 26.49 52.96 L 26.29 52.89 L 26.28 52.89 L 26.09 52.81 L 26.08 52.8 L 25.9 52.71 L 25.89 52.7 L 25.72 52.6 L 25.71 52.59 L 25.55 52.48 L 25.54 52.47 L 25.39 52.35 L 25.38 52.33 L 25.24 52.2 L 25.23 52.19 L 25.1 52.04 L 25.09 52.03 L 24.98 51.87 L 24.97 51.86 L 24.86 51.7 L 24.85 51.68 L 24.76 51.5 L 24.75 51.49 L 24.66 51.31 L 24.66 51.29 L 24.59 51.1 L 24.58 51.09 L 24.52 50.88 L 24.51 50.87 L 24.46 50.66 L 24.46 50.65 L 24.42 50.43 L 24.42 50.42 L 24.39 50.2 L 24.39 50.19 L 24.37 49.95 Z M 25.64 49.7 L 25.65 49.97 L 25.67 50.22 L 25.72 50.46 L 25.78 50.68 L 25.85 50.88 L 25.94 51.07 L 26.05 51.25 L 26.17 51.41 L 26.31 51.55 L 26.46 51.67 L 26.62 51.78 L 26.8 51.86 L 26.99 51.93 L 27.19 51.98 L 27.41 52.01 L 27.64 52.02 L 27.89 52.01 L 28.11 51.98 L 28.32 51.93 L 28.51 51.87 L 28.69 51.79 L 28.85 51.69 L 29 51.57 L 29.13 51.43 L 29.25 51.27 L 29.36 51.1 L 29.44 50.91 L 29.52 50.71 L 29.58 50.48 L 29.62 50.24 L 29.64 49.98 L 29.65 49.7 L 29.64 49.43 L 29.62 49.18 L 29.58 48.95 L 29.52 48.73 L 29.44 48.53 L 29.35 48.34 L 29.25 48.18 L 29.13 48.02 L 28.99 47.88 L 28.84 47.77 L 28.68 47.67 L 28.51 47.58 L 28.32 47.52 L 28.11 47.47 L 27.89 47.44 L 27.65 47.43 L 27.41 47.44 L 27.19 47.47 L 26.98 47.52 L 26.79 47.58 L 26.61 47.66 L 26.45 47.76 L 26.3 47.88 L 26.17 48.01 L 26.04 48.17 L 25.94 48.33 L 25.85 48.52 L 25.77 48.72 L 25.72 48.94 L 25.67 49.17 L 25.65 49.43 Z" fill="#111" stroke-width="0" stroke-linecap="round" stroke-linejoin="round" opacity="1" stroke="none" class="atom-10 label" data-text="O" /><path d="M 57.87 42.12 L 57.87 35.93 L 57.88 35.87 L 57.9 35.83 L 57.93 35.78 L 57.97 35.75 L 58.01 35.73 L 58.06 35.72 L 58.08 35.72 L 59.06 35.72 L 59.11 35.72 L 59.16 35.74 L 59.2 35.77 L 59.23 35.81 L 59.24 35.81 L 62.16 40.44 L 62.15 40.35 L 62.15 40.35 L 62.15 40.22 L 62.15 40.21 L 62.15 40.09 L 62.15 40.09 L 62.15 39.99 L 62.15 39.99 L 62.15 35.93 L 62.15 35.87 L 62.17 35.83 L 62.2 35.78 L 62.24 35.75 L 62.28 35.73 L 62.33 35.72 L 62.36 35.72 L 63.11 35.72 L 63.16 35.72 L 63.21 35.74 L 63.25 35.77 L 63.29 35.81 L 63.31 35.85 L 63.32 35.9 L 63.32 35.93 L 63.32 42.12 L 63.32 42.17 L 63.3 42.22 L 63.27 42.26 L 63.23 42.29 L 63.18 42.31 L 63.13 42.33 L 63.11 42.33 L 62.1 42.33 L 62.05 42.32 L 62 42.3 L 61.96 42.27 L 61.93 42.23 L 61.92 42.23 L 59.03 37.62 L 59.04 38 L 59.04 38 L 59.04 42.12 L 59.03 42.17 L 59.02 42.22 L 58.99 42.26 L 58.95 42.29 L 58.9 42.31 L 58.85 42.33 L 58.83 42.33 L 58.08 42.33 L 58.03 42.32 L 57.99 42.3 L 57.94 42.27 L 57.91 42.23 L 57.89 42.19 L 57.88 42.14 Z" fill="#111" stroke-width="0" stroke-linecap="round" stroke-linejoin="round" opacity="1" stroke="none" class="atom-11 label" data-text="N" /></g></g></svg>