<?xml version="1.0" encoding="UTF-8"?>
<svg xmlns="http://www.w3.org/2000/svg" width="139.35" height="122.48" viewBox="0 0 139.35 122.48" class="xpict" style="background:transparent;max-width:100%;max-height:100%"><g class="xpict-halo" id="halo"><path d="M 23.75 50.95 L 23.75 50.93 L 23.75 50.92 L 23.75 50.9 L 23.77 50.54 L 23.77 50.52 L 23.77 50.5 L 23.77 50.48 L 23.81 50.14 L 23.81 50.11 L 23.82 50.09 L 23.82 50.07 L 23.88 49.75 L 23.89 49.72 L 23.89 49.7 L 23.9 49.67 L 23.99 49.37 L 24 49.34 L 24.01 49.32 L 24.02 49.3 L 24.13 49.02 L 24.15 48.99 L 24.15 48.97 L 24.17 48.94 L 24.31 48.68 L 24.33 48.65 L 24.34 48.63 L 24.36 48.6 L 24.52 48.36 L 24.54 48.33 L 24.56 48.31 L 24.58 48.29 L 24.77 48.07 L 24.79 48.04 L 24.81 48.03 L 24.83 48 L 25.05 47.81 L 25.07 47.78 L 25.09 47.77 L 25.12 47.75 L 25.35 47.58 L 25.38 47.56 L 25.4 47.54 L 25.43 47.53 L 25.68 47.38 L 25.71 47.37 L 25.73 47.36 L 25.76 47.34 L 26.04 47.22 L 26.07 47.21 L 26.09 47.2 L 26.12 47.19 L 26.41 47.1 L 26.44 47.09 L 26.46 47.09 L 26.49 47.08 L 26.8 47.02 L 26.83 47.01 L 26.84 47.01 L 26.87 47.01 L 27.2 46.97 L 27.23 46.96 L 27.24 46.96 L 27.27 46.96 L 27.62 46.95 L 27.64 46.95 L 27.65 46.95 L 27.67 46.95 L 27.91 46.95 L 27.92 46.95 L 27.93 46.96 L 27.95 46.96 L 28.17 46.97 L 28.19 46.98 L 28.2 46.98 L 28.22 46.98 L 28.44 47.01 L 28.45 47.01 L 28.47 47.01 L 28.48 47.02 L 28.69 47.06 L 28.71 47.06 L 28.72 47.06 L 28.74 47.07 L 28.94 47.12 L 28.96 47.13 L 28.98 47.13 L 29 47.14 L 29.19 47.2 L 29.21 47.21 L 29.22 47.21 L 29.24 47.22 L 29.43 47.3 L 29.45 47.31 L 29.46 47.31 L 29.48 47.32 L 29.66 47.41 L 29.68 47.42 L 29.69 47.43 L 29.71 47.44 L 29.88 47.54 L 29.9 47.55 L 29.91 47.56 L 29.93 47.57 L 30.09 47.68 L 30.11 47.69 L 30.12 47.7 L 30.14 47.72 L 30.29 47.84 L 30.3 47.85 L 30.32 47.86 L 30.33 47.88 L 30.47 48.01 L 30.49 48.03 L 30.5 48.04 L 30.52 48.06 L 30.64 48.2 L 30.66 48.22 L 30.67 48.23 L 30.68 48.25 L 30.8 48.4 L 30.81 48.42 L 30.82 48.43 L 30.84 48.45 L 30.94 48.61 L 30.96 48.63 L 30.96 48.64 L 30.97 48.66 L 31.07 48.84 L 31.08 48.86 L 31.09 48.87 L 31.1 48.89 L 31.18 49.07 L 31.19 49.09 L 31.2 49.1 L 31.2 49.12 L 31.28 49.31 L 31.29 49.33 L 31.29 49.35 L 31.3 49.36 L 31.36 49.56 L 31.37 49.58 L 31.37 49.59 L 31.37 49.61 L 31.43 49.82 L 31.43 49.84 L 31.43 49.85 L 31.44 49.87 L 31.48 50.08 L 31.48 50.1 L 31.48 50.11 L 31.48 50.13 L 31.51 50.35 L 31.51 50.37 L 31.52 50.38 L 31.52 50.4 L 31.53 50.63 L 31.53 50.64 L 31.54 50.65 L 31.54 50.67 L 31.54 50.91 L 31.54 50.92 L 31.54 50.93 L 31.54 50.95 L 31.54 51.19 L 31.54 51.2 L 31.53 51.21 L 31.53 51.23 L 31.52 51.46 L 31.51 51.48 L 31.51 51.49 L 31.51 51.51 L 31.48 51.73 L 31.48 51.75 L 31.48 51.76 L 31.48 51.78 L 31.43 51.99 L 31.43 52.01 L 31.43 52.02 L 31.42 52.04 L 31.37 52.25 L 31.37 52.27 L 31.36 52.28 L 31.36 52.3 L 31.29 52.5 L 31.29 52.52 L 31.28 52.53 L 31.28 52.55 L 31.2 52.74 L 31.19 52.76 L 31.19 52.77 L 31.18 52.79 L 31.17 52.81 L 31.42 52.41 L 31.52 52.29 L 31.63 52.2 L 31.77 52.14 L 31.8 52.13 L 32.27 52.02 L 32.42 52.01 L 32.51 52.01 L 46.15 54.25 L 46.17 54.11 L 46.18 54.08 L 46.2 54 L 46.2 53.91 L 46.23 53.76 L 46.24 53.74 L 32.59 51.51 L 32.45 51.46 L 32.37 51.42 L 31.96 51.17 L 31.84 51.07 L 31.75 50.96 L 31.69 50.82 L 31.68 50.79 L 31.57 50.32 L 31.56 50.17 L 31.58 50.02 L 31.63 49.88 L 31.65 49.86 L 31.9 49.45 L 32 49.33 L 32.11 49.24 L 32.25 49.18 L 32.28 49.17 L 32.75 49.06 L 32.9 49.05 L 32.99 49.05 L 47.98 51.51 L 55.67 42.1 L 55.78 42 L 55.85 41.95 L 56.28 41.72 L 56.42 41.67 L 56.56 41.65 L 56.71 41.67 L 56.72 41.67 L 56.72 35.61 L 56.72 35.54 L 56.73 35.49 L 56.77 35.34 L 56.78 35.29 L 56.85 35.16 L 56.88 35.12 L 56.98 35.01 L 57.02 34.98 L 57.14 34.89 L 57.19 34.87 L 57.33 34.82 L 57.38 34.81 L 57.47 34.79 L 57.17 34.48 L 57.09 34.36 L 57.05 34.28 L 51.82 20.44 L 51.78 20.29 L 51.78 20.2 L 51.79 19.72 L 51.82 19.57 L 51.87 19.44 L 51.96 19.32 L 51.99 19.29 L 52.34 18.96 L 52.46 18.88 L 52.6 18.82 L 52.74 18.8 L 52.78 18.8 L 53.26 18.81 L 53.41 18.84 L 53.54 18.89 L 53.66 18.98 L 53.69 19.01 L 54.02 19.36 L 54.1 19.48 L 54.14 19.56 L 59.37 33.4 L 59.41 33.55 L 59.41 33.64 L 59.4 34.12 L 59.37 34.27 L 59.32 34.4 L 59.23 34.52 L 59.2 34.55 L 58.86 34.87 L 58.97 34.92 L 59.01 34.95 L 59.12 35.05 L 59.15 35.09 L 59.2 35.16 L 59.21 35.16 L 59.21 35.17 L 60.99 37.99 L 60.99 35.61 L 60.99 35.54 L 61 35.49 L 61.04 35.34 L 61.06 35.29 L 61.13 35.16 L 61.15 35.12 L 61.25 35.01 L 61.29 34.98 L 61.42 34.89 L 61.46 34.87 L 61.6 34.82 L 61.65 34.81 L 61.76 34.79 L 61.78 34.79 L 61.81 34.79 L 62.57 34.79 L 62.64 34.79 L 62.69 34.8 L 62.84 34.84 L 62.89 34.85 L 63.02 34.92 L 63.06 34.95 L 63.17 35.05 L 63.2 35.09 L 63.29 35.22 L 63.31 35.26 L 63.36 35.4 L 63.37 35.45 L 63.39 35.56 L 63.39 35.58 L 63.39 35.61 L 63.39 41.8 L 63.39 41.88 L 63.38 41.93 L 63.34 42.07 L 63.33 42.12 L 63.26 42.25 L 63.23 42.29 L 63.13 42.41 L 63.09 42.44 L 62.96 42.52 L 62.92 42.55 L 62.78 42.6 L 62.73 42.61 L 62.62 42.62 L 62.6 42.62 L 62.57 42.63 L 61.56 42.63 L 61.48 42.62 L 61.43 42.62 L 61.29 42.58 L 61.24 42.56 L 61.11 42.49 L 61.07 42.46 L 60.96 42.36 L 60.92 42.32 L 60.87 42.26 L 60.87 42.25 L 60.86 42.24 L 59.11 39.45 L 59.11 41.8 L 59.11 41.88 L 59.1 41.93 L 59.06 42.07 L 59.05 42.12 L 58.98 42.25 L 58.95 42.29 L 58.85 42.41 L 58.81 42.44 L 58.68 42.52 L 58.64 42.55 L 58.5 42.6 L 58.45 42.61 L 58.34 42.62 L 58.32 42.62 L 58.29 42.63 L 57.83 42.63 L 57.85 42.68 L 57.87 42.82 L 57.85 42.97 L 57.84 43 L 57.7 43.47 L 57.64 43.6 L 57.59 43.68 L 48.81 54.42 L 53.78 67.59 L 53.82 67.74 L 53.82 67.83 L 53.81 68.31 L 53.78 68.46 L 53.73 68.59 L 53.64 68.71 L 53.61 68.74 L 53.27 69.06 L 53.37 69.11 L 53.42 69.14 L 53.53 69.24 L 53.56 69.28 L 53.61 69.35 L 53.62 69.35 L 53.62 69.36 L 55.4 72.18 L 55.4 69.8 L 55.4 69.72 L 55.41 69.67 L 55.45 69.53 L 55.46 69.48 L 55.53 69.35 L 55.56 69.31 L 55.66 69.2 L 55.7 69.16 L 55.82 69.08 L 55.87 69.06 L 56.01 69 L 56.06 68.99 L 56.17 68.98 L 56.19 68.98 L 56.22 68.98 L 56.98 68.98 L 57.05 68.98 L 57.1 68.99 L 57.25 69.02 L 57.29 69.04 L 57.43 69.11 L 57.47 69.14 L 57.58 69.24 L 57.61 69.28 L 57.7 69.4 L 57.72 69.45 L 57.77 69.59 L 57.78 69.64 L 57.8 69.74 L 57.8 69.77 L 57.8 69.8 L 57.8 75.99 L 57.79 76.06 L 57.79 76.12 L 57.75 76.26 L 57.73 76.31 L 57.66 76.44 L 57.63 76.48 L 57.53 76.59 L 57.5 76.63 L 57.37 76.71 L 57.33 76.73 L 57.19 76.78 L 57.14 76.8 L 57.03 76.81 L 57.01 76.81 L 56.98 76.81 L 55.97 76.81 L 55.89 76.81 L 55.84 76.8 L 55.7 76.77 L 55.65 76.75 L 55.52 76.68 L 55.47 76.65 L 55.36 76.55 L 55.33 76.51 L 55.28 76.44 L 55.28 76.44 L 55.27 76.43 L 53.52 73.64 L 53.52 75.99 L 53.51 76.06 L 53.51 76.12 L 53.47 76.26 L 53.45 76.31 L 53.38 76.44 L 53.35 76.48 L 53.25 76.59 L 53.22 76.63 L 53.09 76.71 L 53.05 76.73 L 52.91 76.78 L 52.86 76.8 L 52.75 76.81 L 52.73 76.81 L 52.7 76.81 L 52.24 76.81 L 52.26 76.87 L 52.28 77.01 L 52.26 77.16 L 52.25 77.19 L 52.11 77.66 L 52.05 77.79 L 52 77.87 L 42.76 89.16 L 42.65 89.26 L 42.58 89.31 L 42.15 89.54 L 42.01 89.59 L 41.87 89.61 L 41.72 89.59 L 41.69 89.58 L 41.22 89.44 L 41.09 89.38 L 40.97 89.29 L 40.88 89.18 L 40.86 89.15 L 40.63 88.72 L 40.58 88.58 L 40.56 88.44 L 40.58 88.29 L 40.59 88.26 L 40.73 87.79 L 40.79 87.66 L 40.84 87.58 L 50.08 76.29 L 50.19 76.19 L 50.26 76.14 L 50.69 75.91 L 50.83 75.86 L 50.97 75.84 L 51.12 75.86 L 51.13 75.86 L 51.13 69.8 L 51.13 69.72 L 51.14 69.67 L 51.17 69.53 L 51.19 69.48 L 51.26 69.35 L 51.29 69.31 L 51.39 69.2 L 51.43 69.16 L 51.55 69.08 L 51.6 69.06 L 51.74 69 L 51.79 68.99 L 51.87 68.98 L 51.58 68.67 L 51.5 68.55 L 51.46 68.47 L 47.09 56.92 L 32.11 54.47 L 31.97 54.42 L 31.89 54.38 L 31.48 54.13 L 31.36 54.03 L 31.27 53.92 L 31.21 53.78 L 31.2 53.75 L 31.09 53.28 L 31.08 53.13 L 31.1 52.98 L 31.12 52.91 L 31.09 52.98 L 31.08 53 L 31.08 53.01 L 31.07 53.03 L 30.97 53.21 L 30.96 53.22 L 30.95 53.24 L 30.94 53.25 L 30.83 53.42 L 30.82 53.44 L 30.81 53.45 L 30.8 53.47 L 30.68 53.63 L 30.67 53.64 L 30.66 53.66 L 30.64 53.67 L 30.51 53.82 L 30.5 53.84 L 30.49 53.85 L 30.47 53.86 L 30.33 54 L 30.32 54.01 L 30.3 54.03 L 30.29 54.04 L 30.14 54.16 L 30.12 54.18 L 30.11 54.19 L 30.09 54.2 L 29.93 54.32 L 29.91 54.33 L 29.9 54.34 L 29.88 54.35 L 29.71 54.45 L 29.69 54.46 L 29.68 54.47 L 29.66 54.48 L 29.48 54.57 L 29.46 54.58 L 29.45 54.59 L 29.43 54.6 L 29.24 54.68 L 29.22 54.69 L 29.21 54.69 L 29.19 54.7 L 29 54.77 L 28.98 54.77 L 28.96 54.78 L 28.94 54.78 L 28.74 54.84 L 28.72 54.84 L 28.71 54.85 L 28.69 54.85 L 28.48 54.89 L 28.46 54.9 L 28.45 54.9 L 28.43 54.9 L 28.22 54.93 L 28.2 54.93 L 28.19 54.94 L 28.17 54.94 L 27.94 54.96 L 27.93 54.96 L 27.91 54.96 L 27.9 54.96 L 27.67 54.96 L 27.65 54.96 L 27.64 54.96 L 27.62 54.96 L 27.39 54.96 L 27.37 54.96 L 27.36 54.96 L 27.34 54.96 L 27.12 54.94 L 27.1 54.94 L 27.09 54.93 L 27.07 54.93 L 26.85 54.9 L 26.83 54.9 L 26.82 54.9 L 26.8 54.89 L 26.59 54.85 L 26.57 54.85 L 26.56 54.84 L 26.54 54.84 L 26.34 54.78 L 26.32 54.78 L 26.31 54.78 L 26.29 54.77 L 26.09 54.7 L 26.07 54.69 L 26.06 54.69 L 26.04 54.68 L 25.85 54.6 L 25.83 54.59 L 25.82 54.59 L 25.8 54.58 L 25.62 54.49 L 25.6 54.48 L 25.59 54.47 L 25.57 54.46 L 25.4 54.36 L 25.38 54.34 L 25.37 54.33 L 25.35 54.32 L 25.19 54.21 L 25.17 54.2 L 25.16 54.19 L 25.14 54.17 L 25 54.05 L 24.98 54.03 L 24.97 54.02 L 24.95 54 L 24.81 53.87 L 24.8 53.85 L 24.78 53.84 L 24.77 53.82 L 24.64 53.68 L 24.63 53.66 L 24.62 53.65 L 24.6 53.63 L 24.49 53.47 L 24.47 53.46 L 24.46 53.44 L 24.45 53.42 L 24.34 53.26 L 24.33 53.24 L 24.33 53.23 L 24.31 53.21 L 24.22 53.03 L 24.21 53.01 L 24.2 53 L 24.19 52.98 L 24.11 52.79 L 24.1 52.77 L 24.09 52.76 L 24.09 52.74 L 24.01 52.55 L 24.01 52.53 L 24 52.52 L 24 52.5 L 23.93 52.3 L 23.93 52.28 L 23.92 52.27 L 23.92 52.25 L 23.87 52.04 L 23.86 52.02 L 23.86 52.01 L 23.86 51.99 L 23.82 51.78 L 23.82 51.76 L 23.81 51.75 L 23.81 51.73 L 23.78 51.51 L 23.78 51.49 L 23.78 51.48 L 23.78 51.46 L 23.76 51.23 L 23.76 51.22 L 23.76 51.2 L 23.76 51.19 Z M 26.25 50.93 L 26.26 51.16 L 26.28 51.37 L 26.31 51.56 L 26.36 51.72 L 26.42 51.88 L 26.48 52.01 L 26.56 52.13 L 26.64 52.24 L 26.73 52.33 L 26.82 52.41 L 26.92 52.48 L 27.03 52.53 L 27.16 52.58 L 27.3 52.61 L 27.46 52.63 L 27.64 52.64 L 27.84 52.63 L 28.01 52.61 L 28.15 52.58 L 28.28 52.53 L 28.4 52.48 L 28.49 52.42 L 28.58 52.35 L 28.67 52.26 L 28.75 52.16 L 28.82 52.04 L 28.88 51.91 L 28.93 51.76 L 28.98 51.59 L 29.01 51.39 L 29.03 51.17 L 29.04 50.93 L 29.03 50.7 L 29.01 50.5 L 28.98 50.31 L 28.93 50.15 L 28.88 50 L 28.82 49.87 L 28.75 49.76 L 28.67 49.66 L 28.58 49.57 L 28.49 49.5 L 28.39 49.44 L 28.28 49.38 L 28.15 49.34 L 28.01 49.31 L 27.84 49.29 L 27.65 49.28 L 27.46 49.29 L 27.29 49.31 L 27.14 49.34 L 27.01 49.38 L 26.9 49.44 L 26.8 49.5 L 26.71 49.57 L 26.62 49.65 L 26.54 49.75 L 26.47 49.87 L 26.41 49.99 L 26.36 50.14 L 26.31 50.3 L 26.28 50.49 L 26.26 50.7 Z M 57.85 73.69 L 57.84 73.54 L 57.86 73.39 L 57.91 73.25 L 57.93 73.23 L 58.18 72.82 L 58.27 72.7 L 58.39 72.61 L 58.53 72.55 L 58.56 72.54 L 59.03 72.43 L 59.18 72.42 L 59.27 72.42 L 73.69 74.78 L 85.44 60.41 L 78.88 43.05 L 64.46 40.69 L 64.32 40.64 L 64.24 40.6 L 63.83 40.35 L 63.71 40.25 L 63.62 40.14 L 63.56 40 L 63.55 39.97 L 63.44 39.5 L 63.43 39.35 L 63.45 39.2 L 63.5 39.06 L 63.52 39.04 L 63.77 38.63 L 63.87 38.51 L 63.98 38.42 L 64.12 38.36 L 64.15 38.35 L 64.62 38.24 L 64.77 38.23 L 64.86 38.23 L 79.44 40.62 L 90.47 31.78 L 90.6 31.7 L 90.68 31.67 L 91.15 31.54 L 91.29 31.51 L 91.44 31.52 L 91.58 31.57 L 91.61 31.59 L 92.04 31.82 L 92.06 31.84 L 92.06 26.33 L 92.07 26.26 L 92.07 26.21 L 92.11 26.06 L 92.13 26.01 L 92.2 25.88 L 92.23 25.84 L 92.33 25.73 L 92.37 25.7 L 92.49 25.61 L 92.53 25.59 L 92.67 25.54 L 92.72 25.53 L 92.83 25.51 L 92.85 25.51 L 92.89 25.51 L 93.86 25.51 L 93.94 25.51 L 93.99 25.52 L 94.13 25.56 L 94.18 25.58 L 94.31 25.65 L 94.35 25.67 L 94.46 25.77 L 94.5 25.81 L 94.55 25.88 L 94.55 25.89 L 94.56 25.89 L 96.33 28.71 L 96.33 26.33 L 96.34 26.26 L 96.34 26.21 L 96.38 26.06 L 96.4 26.01 L 96.47 25.88 L 96.5 25.84 L 96.6 25.73 L 96.64 25.7 L 96.76 25.61 L 96.81 25.59 L 96.95 25.54 L 97 25.53 L 97.1 25.51 L 97.12 25.51 L 97.16 25.51 L 97.91 25.51 L 97.99 25.51 L 98.04 25.52 L 98.18 25.56 L 98.23 25.58 L 98.36 25.65 L 98.4 25.67 L 98.51 25.77 L 98.55 25.81 L 98.63 25.94 L 98.65 25.98 L 98.71 26.12 L 98.72 26.17 L 98.73 26.28 L 98.73 26.3 L 98.73 26.33 L 98.73 31.6 L 98.76 31.56 L 98.86 31.46 L 98.89 31.44 L 99.29 31.17 L 99.42 31.1 L 99.57 31.06 L 99.72 31.07 L 99.75 31.07 L 100.22 31.16 L 100.36 31.21 L 100.44 31.25 L 112.79 39.37 L 112.91 39.47 L 112.96 39.54 L 112.99 39.58 L 113.03 39.61 L 113.14 39.72 L 113.22 39.85 L 113.26 39.99 L 113.26 39.99 L 113.3 40.07 L 113.34 40.22 L 113.33 40.37 L 113.33 40.4 L 113.32 40.45 L 113.33 40.5 L 113.33 40.65 L 113.31 40.74 L 109.38 55.14 L 109.32 55.28 L 109.27 55.35 L 108.98 55.73 L 108.93 55.78 L 109.36 55.78 L 109.43 55.78 L 109.48 55.79 L 109.63 55.83 L 109.67 55.84 L 109.81 55.91 L 109.85 55.94 L 109.96 56.04 L 109.99 56.08 L 110.08 56.21 L 110.1 56.25 L 110.15 56.39 L 110.16 56.44 L 110.18 56.55 L 110.18 56.57 L 110.18 56.6 L 110.18 62.7 L 110.26 62.68 L 110.41 62.69 L 110.55 62.74 L 110.58 62.76 L 111.01 62.99 L 111.13 63.08 L 111.19 63.14 L 120.32 74.52 L 120.4 74.65 L 120.43 74.73 L 120.56 75.2 L 120.59 75.34 L 120.58 75.49 L 120.53 75.63 L 120.51 75.66 L 120.28 76.09 L 120.19 76.21 L 120.08 76.3 L 119.95 76.37 L 119.92 76.38 L 119.45 76.51 L 119.31 76.54 L 119.16 76.53 L 119.02 76.48 L 118.99 76.46 L 118.56 76.23 L 118.44 76.14 L 118.38 76.08 L 109.25 64.7 L 109.17 64.57 L 109.14 64.49 L 109.01 64.02 L 108.98 63.88 L 108.99 63.73 L 109.03 63.62 L 108.35 63.62 L 108.27 63.61 L 108.22 63.61 L 108.08 63.57 L 108.03 63.55 L 107.9 63.48 L 107.85 63.45 L 107.74 63.35 L 107.71 63.31 L 107.66 63.25 L 107.66 63.24 L 107.65 63.23 L 105.9 60.44 L 105.9 62.79 L 105.89 62.87 L 105.89 62.92 L 105.85 63.06 L 105.83 63.11 L 105.76 63.24 L 105.73 63.28 L 105.63 63.4 L 105.6 63.43 L 105.47 63.51 L 105.43 63.54 L 105.29 63.59 L 105.24 63.6 L 105.13 63.61 L 105.11 63.62 L 105.08 63.62 L 104.33 63.62 L 104.25 63.61 L 104.2 63.61 L 104.06 63.57 L 104.01 63.55 L 103.88 63.48 L 103.84 63.45 L 103.73 63.35 L 103.69 63.31 L 103.61 63.19 L 103.59 63.14 L 103.54 63 L 103.52 62.95 L 103.51 62.85 L 103.51 62.83 L 103.51 62.79 L 103.51 56.6 L 103.51 56.53 L 103.52 56.48 L 103.55 56.33 L 103.57 56.28 L 103.64 56.15 L 103.67 56.11 L 103.77 56 L 103.81 55.97 L 103.93 55.88 L 103.98 55.86 L 104.12 55.81 L 104.17 55.8 L 104.27 55.78 L 104.3 55.78 L 104.33 55.78 L 105.3 55.78 L 105.38 55.78 L 105.43 55.79 L 105.57 55.83 L 105.62 55.84 L 105.75 55.91 L 105.8 55.94 L 105.91 56.04 L 105.94 56.08 L 105.99 56.15 L 106 56.16 L 106 56.16 L 107.78 58.98 L 107.78 56.6 L 107.78 56.53 L 107.79 56.48 L 107.83 56.33 L 107.84 56.28 L 107.91 56.15 L 107.94 56.11 L 108.02 56.03 L 107.94 56.03 L 107.8 55.99 L 107.67 55.92 L 107.64 55.9 L 107.26 55.61 L 107.15 55.5 L 107.07 55.37 L 107.03 55.23 L 107.03 55.2 L 106.96 54.72 L 106.96 54.57 L 106.98 54.48 L 110.67 40.95 L 99.08 33.33 L 98.96 33.23 L 98.91 33.16 L 98.68 32.82 L 98.67 32.84 L 98.6 32.97 L 98.57 33.02 L 98.47 33.13 L 98.43 33.16 L 98.31 33.24 L 98.26 33.27 L 98.12 33.32 L 98.07 33.33 L 97.97 33.34 L 97.95 33.35 L 97.91 33.35 L 96.9 33.35 L 96.83 33.34 L 96.78 33.34 L 96.63 33.3 L 96.58 33.28 L 96.45 33.21 L 96.41 33.18 L 96.3 33.08 L 96.27 33.04 L 96.21 32.98 L 96.21 32.97 L 96.21 32.96 L 94.45 30.18 L 94.45 32.52 L 94.45 32.6 L 94.44 32.65 L 94.41 32.79 L 94.39 32.84 L 94.32 32.97 L 94.29 33.02 L 94.19 33.13 L 94.15 33.16 L 94.03 33.24 L 93.98 33.27 L 93.84 33.32 L 93.79 33.33 L 93.69 33.34 L 93.66 33.35 L 93.63 33.35 L 92.89 33.35 L 92.81 33.34 L 92.76 33.34 L 92.62 33.3 L 92.57 33.28 L 92.44 33.21 L 92.39 33.18 L 92.38 33.17 L 92.18 33.54 L 92.09 33.66 L 92.03 33.72 L 81.27 42.34 L 87.7 59.36 L 102.12 58.68 L 102.27 58.69 L 102.36 58.71 L 102.81 58.88 L 102.94 58.95 L 103.06 59.04 L 103.14 59.16 L 103.16 59.19 L 103.36 59.63 L 103.41 59.77 L 103.42 59.92 L 103.4 60.07 L 103.39 60.1 L 103.22 60.55 L 103.15 60.68 L 103.06 60.8 L 102.94 60.88 L 102.91 60.9 L 102.47 61.1 L 102.33 61.15 L 102.24 61.16 L 87.47 61.86 L 76.71 75.01 L 81.89 88.73 L 81.93 88.88 L 81.93 88.97 L 81.92 89.45 L 81.89 89.6 L 81.84 89.73 L 81.75 89.85 L 81.72 89.88 L 81.37 90.21 L 81.25 90.29 L 81.11 90.35 L 80.97 90.37 L 80.93 90.37 L 80.45 90.36 L 80.3 90.33 L 80.17 90.28 L 80.05 90.19 L 80.02 90.16 L 79.69 89.81 L 79.61 89.69 L 79.57 89.61 L 74.87 77.16 L 74.74 77.22 L 74.71 77.23 L 74.63 77.25 L 74.55 77.29 L 74.41 77.34 L 74.39 77.34 L 79.09 89.79 L 79.13 89.94 L 79.13 90.03 L 79.12 90.51 L 79.09 90.66 L 79.04 90.79 L 78.95 90.91 L 78.92 90.94 L 78.57 91.27 L 78.45 91.35 L 78.31 91.41 L 78.17 91.43 L 78.13 91.43 L 77.65 91.42 L 77.5 91.39 L 77.37 91.34 L 77.25 91.25 L 77.22 91.22 L 76.89 90.87 L 76.81 90.75 L 76.77 90.67 L 71.58 76.95 L 58.87 74.88 L 58.73 74.83 L 58.65 74.79 L 58.24 74.54 L 58.12 74.45 L 58.03 74.33 L 57.97 74.19 L 57.96 74.16 Z M 77.38 94.82 L 77.38 94.8 L 77.38 94.79 L 77.38 94.77 L 77.39 94.41 L 77.39 94.39 L 77.39 94.37 L 77.39 94.35 L 77.43 94.01 L 77.43 93.98 L 77.44 93.97 L 77.44 93.94 L 77.51 93.62 L 77.51 93.59 L 77.52 93.57 L 77.52 93.55 L 77.61 93.25 L 77.62 93.22 L 77.63 93.2 L 77.64 93.17 L 77.75 92.89 L 77.77 92.86 L 77.78 92.84 L 77.79 92.81 L 77.93 92.55 L 77.95 92.52 L 77.96 92.5 L 77.98 92.47 L 78.14 92.23 L 78.16 92.2 L 78.18 92.19 L 78.2 92.16 L 78.39 91.94 L 78.41 91.91 L 78.43 91.9 L 78.45 91.87 L 78.67 91.68 L 78.69 91.66 L 78.71 91.64 L 78.74 91.62 L 78.97 91.45 L 79 91.43 L 79.02 91.42 L 79.05 91.4 L 79.3 91.25 L 79.33 91.24 L 79.35 91.23 L 79.38 91.21 L 79.66 91.1 L 79.69 91.08 L 79.71 91.08 L 79.74 91.07 L 80.03 90.98 L 80.06 90.97 L 80.08 90.96 L 80.11 90.95 L 80.42 90.89 L 80.45 90.88 L 80.46 90.88 L 80.49 90.88 L 80.82 90.84 L 80.85 90.84 L 80.87 90.83 L 80.89 90.83 L 81.24 90.82 L 81.26 90.82 L 81.28 90.82 L 81.29 90.82 L 81.53 90.83 L 81.54 90.83 L 81.55 90.83 L 81.57 90.83 L 81.79 90.85 L 81.81 90.85 L 81.82 90.85 L 81.84 90.85 L 82.06 90.88 L 82.08 90.88 L 82.09 90.88 L 82.11 90.89 L 82.31 90.93 L 82.33 90.93 L 82.35 90.94 L 82.36 90.94 L 82.57 90.99 L 82.59 91 L 82.6 91 L 82.62 91.01 L 82.81 91.07 L 82.83 91.08 L 82.84 91.09 L 82.86 91.09 L 83.05 91.17 L 83.07 91.18 L 83.08 91.18 L 83.1 91.19 L 83.28 91.28 L 83.3 91.29 L 83.31 91.3 L 83.33 91.31 L 83.5 91.41 L 83.52 91.42 L 83.53 91.43 L 83.55 91.44 L 83.71 91.55 L 83.73 91.57 L 83.74 91.57 L 83.76 91.59 L 83.91 91.71 L 83.92 91.73 L 83.94 91.74 L 83.95 91.75 L 84.09 91.88 L 84.11 91.9 L 84.12 91.91 L 84.14 91.93 L 84.26 92.07 L 84.28 92.09 L 84.29 92.1 L 84.3 92.12 L 84.42 92.27 L 84.44 92.29 L 84.44 92.3 L 84.46 92.32 L 84.56 92.48 L 84.58 92.5 L 84.58 92.52 L 84.6 92.54 L 84.69 92.71 L 84.7 92.73 L 84.71 92.74 L 84.72 92.76 L 84.8 92.94 L 84.81 92.96 L 84.82 92.98 L 84.83 92.99 L 84.9 93.19 L 84.91 93.2 L 84.91 93.22 L 84.92 93.24 L 84.98 93.44 L 84.99 93.45 L 84.99 93.47 L 85 93.49 L 85.05 93.69 L 85.05 93.71 L 85.05 93.72 L 85.06 93.74 L 85.1 93.96 L 85.1 93.97 L 85.1 93.98 L 85.1 94 L 85.13 94.23 L 85.14 94.24 L 85.14 94.25 L 85.14 94.27 L 85.16 94.5 L 85.16 94.52 L 85.16 94.53 L 85.16 94.54 L 85.16 94.78 L 85.16 94.8 L 85.16 94.81 L 85.16 94.82 L 85.16 95.06 L 85.16 95.08 L 85.16 95.09 L 85.16 95.1 L 85.14 95.33 L 85.14 95.35 L 85.14 95.36 L 85.13 95.38 L 85.1 95.6 L 85.1 95.62 L 85.1 95.63 L 85.1 95.65 L 85.06 95.86 L 85.05 95.88 L 85.05 95.89 L 85.05 95.91 L 84.99 96.12 L 84.99 96.14 L 84.99 96.15 L 84.98 96.17 L 84.92 96.37 L 84.91 96.39 L 84.91 96.4 L 84.9 96.42 L 84.82 96.61 L 84.82 96.63 L 84.81 96.65 L 84.8 96.66 L 84.71 96.85 L 84.71 96.87 L 84.7 96.88 L 84.69 96.9 L 84.59 97.08 L 84.58 97.1 L 84.57 97.11 L 84.56 97.13 L 84.45 97.29 L 84.44 97.31 L 84.43 97.32 L 84.42 97.34 L 84.3 97.5 L 84.29 97.52 L 84.28 97.53 L 84.26 97.55 L 84.13 97.69 L 84.12 97.71 L 84.11 97.72 L 84.09 97.74 L 83.95 97.87 L 83.94 97.89 L 83.92 97.9 L 83.91 97.91 L 83.76 98.04 L 83.74 98.05 L 83.73 98.06 L 83.71 98.07 L 83.55 98.19 L 83.53 98.2 L 83.52 98.21 L 83.5 98.22 L 83.33 98.32 L 83.31 98.34 L 83.3 98.34 L 83.28 98.35 L 83.1 98.45 L 83.08 98.46 L 83.07 98.46 L 83.05 98.47 L 82.87 98.55 L 82.85 98.56 L 82.83 98.56 L 82.81 98.57 L 82.62 98.64 L 82.6 98.64 L 82.58 98.65 L 82.56 98.65 L 82.36 98.71 L 82.34 98.71 L 82.33 98.72 L 82.31 98.72 L 82.1 98.76 L 82.08 98.77 L 82.07 98.77 L 82.05 98.77 L 81.84 98.8 L 81.82 98.81 L 81.81 98.81 L 81.79 98.81 L 81.56 98.83 L 81.55 98.83 L 81.54 98.83 L 81.52 98.83 L 81.29 98.84 L 81.27 98.84 L 81.26 98.84 L 81.24 98.84 L 81.01 98.83 L 80.99 98.83 L 80.98 98.83 L 80.96 98.83 L 80.74 98.81 L 80.72 98.81 L 80.71 98.81 L 80.69 98.8 L 80.47 98.77 L 80.45 98.77 L 80.44 98.77 L 80.42 98.77 L 80.21 98.72 L 80.19 98.72 L 80.18 98.72 L 80.16 98.71 L 79.96 98.66 L 79.94 98.65 L 79.93 98.65 L 79.91 98.64 L 79.71 98.57 L 79.69 98.57 L 79.68 98.56 L 79.66 98.55 L 79.48 98.48 L 79.45 98.47 L 79.44 98.46 L 79.42 98.45 L 79.24 98.36 L 79.22 98.35 L 79.21 98.34 L 79.19 98.33 L 79.02 98.23 L 79 98.22 L 78.99 98.21 L 78.97 98.19 L 78.81 98.08 L 78.8 98.07 L 78.78 98.06 L 78.77 98.04 L 78.62 97.92 L 78.6 97.9 L 78.59 97.89 L 78.57 97.88 L 78.43 97.74 L 78.42 97.73 L 78.41 97.71 L 78.39 97.7 L 78.26 97.55 L 78.25 97.53 L 78.24 97.52 L 78.22 97.5 L 78.11 97.35 L 78.09 97.33 L 78.08 97.31 L 78.07 97.3 L 77.97 97.13 L 77.95 97.11 L 77.95 97.1 L 77.94 97.08 L 77.84 96.9 L 77.83 96.88 L 77.82 96.87 L 77.81 96.85 L 77.73 96.66 L 77.72 96.65 L 77.72 96.63 L 77.71 96.62 L 77.63 96.42 L 77.63 96.4 L 77.62 96.39 L 77.62 96.37 L 77.55 96.17 L 77.55 96.15 L 77.55 96.14 L 77.54 96.12 L 77.49 95.91 L 77.49 95.89 L 77.48 95.88 L 77.48 95.86 L 77.44 95.65 L 77.44 95.63 L 77.44 95.62 L 77.43 95.6 L 77.4 95.38 L 77.4 95.36 L 77.4 95.35 L 77.4 95.33 L 77.38 95.1 L 77.38 95.09 L 77.38 95.08 L 77.38 95.06 Z M 79.87 94.8 L 79.88 95.03 L 79.9 95.24 L 79.94 95.43 L 79.98 95.6 L 80.04 95.75 L 80.1 95.88 L 80.18 96 L 80.26 96.11 L 80.35 96.21 L 80.44 96.28 L 80.55 96.35 L 80.66 96.4 L 80.78 96.45 L 80.92 96.48 L 81.08 96.5 L 81.27 96.51 L 81.46 96.5 L 81.63 96.48 L 81.78 96.45 L 81.9 96.4 L 82.02 96.35 L 82.12 96.29 L 82.21 96.22 L 82.29 96.13 L 82.37 96.03 L 82.44 95.92 L 82.5 95.78 L 82.55 95.63 L 82.6 95.46 L 82.63 95.26 L 82.65 95.04 L 82.66 94.8 L 82.65 94.58 L 82.63 94.37 L 82.6 94.19 L 82.56 94.02 L 82.5 93.88 L 82.44 93.75 L 82.37 93.63 L 82.29 93.53 L 82.2 93.44 L 82.11 93.37 L 82.01 93.31 L 81.9 93.26 L 81.77 93.21 L 81.63 93.18 L 81.46 93.16 L 81.27 93.15 L 81.08 93.16 L 80.91 93.18 L 80.76 93.21 L 80.63 93.26 L 80.52 93.31 L 80.42 93.37 L 80.33 93.44 L 80.24 93.53 L 80.17 93.63 L 80.1 93.74 L 80.03 93.86 L 79.98 94.01 L 79.93 94.17 L 79.9 94.36 L 79.88 94.57 Z M 82.32 43.6 L 82.32 43.51 L 82.33 43.03 L 82.36 42.88 L 82.41 42.75 L 82.5 42.63 L 82.53 42.6 L 82.88 42.27 L 83 42.19 L 83.14 42.13 L 83.28 42.11 L 83.32 42.11 L 83.8 42.12 L 83.95 42.15 L 84.08 42.2 L 84.2 42.29 L 84.23 42.32 L 84.56 42.67 L 84.64 42.79 L 84.68 42.87 L 89.91 56.71 L 89.95 56.86 L 89.95 56.95 L 89.94 57.43 L 89.91 57.58 L 89.86 57.71 L 89.77 57.83 L 89.74 57.86 L 89.39 58.19 L 89.27 58.27 L 89.13 58.33 L 88.99 58.35 L 88.95 58.35 L 88.47 58.34 L 88.32 58.31 L 88.19 58.26 L 88.07 58.17 L 88.04 58.14 L 87.71 57.79 L 87.63 57.67 L 87.59 57.59 L 82.36 43.75 Z M 99.1 36.57 L 99.06 36.42 L 99.07 36.27 L 99.07 36.24 L 99.16 35.77 L 99.21 35.63 L 99.29 35.5 L 99.39 35.4 L 99.42 35.38 L 99.82 35.11 L 99.95 35.04 L 100.1 35 L 100.25 35.01 L 100.28 35.01 L 100.75 35.1 L 100.89 35.15 L 100.97 35.19 L 108.97 40.45 L 109.09 40.55 L 109.14 40.62 L 109.41 41.02 L 109.48 41.15 L 109.52 41.3 L 109.51 41.45 L 109.51 41.48 L 109.42 41.95 L 109.37 42.09 L 109.29 42.22 L 109.19 42.32 L 109.16 42.34 L 108.76 42.61 L 108.63 42.68 L 108.48 42.72 L 108.33 42.71 L 108.3 42.71 L 107.83 42.62 L 107.69 42.57 L 107.61 42.53 L 99.61 37.27 L 99.49 37.17 L 99.44 37.1 L 99.17 36.7 Z" fill="#fff" stroke-width="0" stroke-linecap="round" stroke-linejoin="round" opacity="0.5" stroke="none" class="halo" /></g><g class="xpict-mol" transform="translate(0,0)"><g class="layer-bonds" id="bonds"><path d="M 119.35 75.3 L 110.22 63.92" fill="none" stroke-width="1.26" stroke-linecap="round" stroke-linejoin="round" opacity="1" stroke="#111" class="bond-0 atom-0 atom-1 bond bond-skeleton" /><path d="M 108.18 54.81 L 112.11 40.41" fill="none" stroke-width="1.26" stroke-linecap="round" stroke-linejoin="round" opacity="1" stroke="#111" class="bond-1 atom-1 atom-2 bond bond-skeleton" /><path d="M 112.11 40.41 L 99.76 32.29" fill="none" stroke-width="1.26" stroke-linecap="round" stroke-linejoin="round" opacity="1" stroke="#111" class="bond-2 atom-2 atom-3 bond bond-skeleton" /><path d="M 108.29 41.49 L 100.29 36.23" fill="none" stroke-width="1.26" stroke-linecap="round" stroke-linejoin="round" opacity="1" stroke="#111" class="bond-2 atom-2 atom-3 bond bond-offset" /><path d="M 91.25 32.75 L 79.79 41.94" fill="none" stroke-width="1.26" stroke-linecap="round" stroke-linejoin="round" opacity="1" stroke="#111" class="bond-3 atom-3 atom-4 bond bond-skeleton" /><path d="M 79.79 41.94 L 86.86 60.64" fill="none" stroke-width="1.26" stroke-linecap="round" stroke-linejoin="round" opacity="1" stroke="#111" class="bond-4 atom-4 atom-5 bond bond-skeleton" /><path d="M 83.52 43.31 L 88.75 57.15" fill="none" stroke-width="1.26" stroke-linecap="round" stroke-linejoin="round" opacity="1" stroke="#111" class="bond-4 atom-4 atom-5 bond bond-offset" /><path d="M 86.86 60.64 L 74.2 76.12" fill="none" stroke-width="1.26" stroke-linecap="round" stroke-linejoin="round" opacity="1" stroke="#111" class="bond-5 atom-5 atom-6 bond bond-skeleton" /><path d="M 75.3 74.78 L 80.73 89.17" fill="none" stroke-width="1.26" stroke-linecap="round" stroke-linejoin="round" opacity="1" stroke="#111" class="bond-6 atom-6 atom-7 bond bond-offset" /><path d="M 72.49 75.84 L 77.93 90.23" fill="none" stroke-width="1.26" stroke-linecap="round" stroke-linejoin="round" opacity="1" stroke="#111" class="bond-6 atom-6 atom-7 bond bond-offset" /><path d="M 74.2 76.12 L 59.07 73.65" fill="none" stroke-width="1.26" stroke-linecap="round" stroke-linejoin="round" opacity="1" stroke="#111" class="bond-7 atom-6 atom-8 bond bond-skeleton" /><path d="M 52.62 68.03 L 47.39 54.19" fill="none" stroke-width="1.26" stroke-linecap="round" stroke-linejoin="round" opacity="1" stroke="#111" class="bond-8 atom-8 atom-9 bond bond-skeleton" /><path d="M 48 55.81 L 32.31 53.24" fill="none" stroke-width="1.26" stroke-linecap="round" stroke-linejoin="round" opacity="1" stroke="#111" class="bond-9 atom-9 atom-10 bond bond-offset" /><path d="M 48.48 52.85 L 32.79 50.28" fill="none" stroke-width="1.26" stroke-linecap="round" stroke-linejoin="round" opacity="1" stroke="#111" class="bond-9 atom-9 atom-10 bond bond-offset" /><path d="M 47.39 54.19 L 56.63 42.89" fill="none" stroke-width="1.26" stroke-linecap="round" stroke-linejoin="round" opacity="1" stroke="#111" class="bond-10 atom-9 atom-11 bond bond-skeleton" /><path d="M 58.21 33.84 L 52.98 20" fill="none" stroke-width="1.26" stroke-linecap="round" stroke-linejoin="round" opacity="1" stroke="#111" class="bond-11 atom-11 atom-12 bond bond-skeleton" /><path d="M 51.04 77.08 L 41.8 88.37" fill="none" stroke-width="1.26" stroke-linecap="round" stroke-linejoin="round" opacity="1" stroke="#111" class="bond-12 atom-8 atom-13 bond bond-skeleton" /><path d="M 86.86 60.64 L 102.18 59.92" fill="none" stroke-width="1.26" stroke-linecap="round" stroke-linejoin="round" opacity="1" stroke="#111" class="bond-13 atom-5 atom-1 bond bond-skeleton" /><path d="M 64.66 39.46 L 79.79 41.94" fill="none" stroke-width="1.26" stroke-linecap="round" stroke-linejoin="round" opacity="1" stroke="#111" class="bond-14 atom-11 atom-4 bond bond-skeleton" /></g><g class="layer-labels" id="labels"><path d="M 104.12 62.79 L 104.12 56.6 L 104.13 56.55 L 104.14 56.5 L 104.17 56.46 L 104.21 56.43 L 104.26 56.4 L 104.31 56.39 L 104.33 56.39 L 105.3 56.39 L 105.36 56.4 L 105.4 56.42 L 105.45 56.45 L 105.48 56.48 L 105.48 56.49 L 108.4 61.12 L 108.4 61.03 L 108.4 61.03 L 108.39 60.89 L 108.39 60.89 L 108.39 60.77 L 108.39 60.77 L 108.39 60.66 L 108.39 60.66 L 108.39 56.6 L 108.4 56.55 L 108.42 56.5 L 108.44 56.46 L 108.48 56.43 L 108.53 56.4 L 108.58 56.39 L 108.6 56.39 L 109.36 56.39 L 109.41 56.4 L 109.46 56.42 L 109.5 56.45 L 109.53 56.48 L 109.55 56.53 L 109.57 56.58 L 109.57 56.6 L 109.57 62.79 L 109.56 62.84 L 109.54 62.89 L 109.51 62.93 L 109.47 62.97 L 109.43 62.99 L 109.38 63 L 109.36 63 L 108.35 63 L 108.3 63 L 108.25 62.98 L 108.21 62.95 L 108.17 62.91 L 108.17 62.91 L 105.27 58.3 L 105.29 58.67 L 105.29 58.68 L 105.29 62.79 L 105.28 62.84 L 105.26 62.89 L 105.23 62.93 L 105.19 62.97 L 105.15 62.99 L 105.1 63 L 105.08 63 L 104.33 63 L 104.28 63 L 104.23 62.98 L 104.19 62.95 L 104.16 62.91 L 104.13 62.87 L 104.12 62.82 Z" fill="#111" stroke-width="0" stroke-linecap="round" stroke-linejoin="round" opacity="1" stroke="none" class="atom-1 label" data-text="N" /><path d="M 92.68 32.52 L 92.68 26.33 L 92.68 26.28 L 92.7 26.23 L 92.73 26.19 L 92.77 26.16 L 92.81 26.14 L 92.86 26.12 L 92.89 26.12 L 93.86 26.12 L 93.91 26.13 L 93.96 26.15 L 94 26.18 L 94.03 26.21 L 94.04 26.22 L 96.96 30.85 L 96.95 30.76 L 96.95 30.76 L 96.95 30.62 L 96.95 30.62 L 96.95 30.5 L 96.95 30.5 L 96.95 30.39 L 96.95 30.39 L 96.95 26.33 L 96.95 26.28 L 96.97 26.23 L 97 26.19 L 97.04 26.16 L 97.08 26.14 L 97.13 26.12 L 97.16 26.12 L 97.91 26.12 L 97.96 26.13 L 98.01 26.15 L 98.05 26.18 L 98.09 26.21 L 98.11 26.26 L 98.12 26.31 L 98.12 26.33 L 98.12 32.52 L 98.12 32.57 L 98.1 32.62 L 98.07 32.66 L 98.03 32.7 L 97.98 32.72 L 97.93 32.73 L 97.91 32.73 L 96.9 32.73 L 96.85 32.73 L 96.8 32.71 L 96.76 32.68 L 96.73 32.64 L 96.72 32.64 L 93.83 28.03 L 93.84 28.4 L 93.84 28.41 L 93.84 32.52 L 93.84 32.57 L 93.82 32.62 L 93.79 32.66 L 93.75 32.7 L 93.7 32.72 L 93.65 32.73 L 93.63 32.73 L 92.89 32.73 L 92.83 32.73 L 92.79 32.71 L 92.74 32.68 L 92.71 32.64 L 92.69 32.6 L 92.68 32.55 Z" fill="#111" stroke-width="0" stroke-linecap="round" stroke-linejoin="round" opacity="1" stroke="none" class="atom-3 label" data-text="N" /><path d="M 77.99 95.05 L 77.99 94.81 L 77.99 94.79 L 78 94.43 L 78 94.42 L 78.04 94.08 L 78.04 94.06 L 78.11 93.74 L 78.11 93.72 L 78.2 93.42 L 78.21 93.4 L 78.32 93.12 L 78.33 93.1 L 78.47 92.84 L 78.48 92.82 L 78.65 92.58 L 78.66 92.56 L 78.85 92.34 L 78.87 92.32 L 79.08 92.13 L 79.1 92.11 L 79.33 91.94 L 79.35 91.93 L 79.61 91.79 L 79.63 91.78 L 79.9 91.66 L 79.92 91.65 L 80.21 91.56 L 80.23 91.55 L 80.55 91.49 L 80.56 91.49 L 80.9 91.45 L 80.91 91.45 L 81.27 91.43 L 81.28 91.43 L 81.51 91.44 L 81.52 91.44 L 81.75 91.46 L 81.76 91.46 L 81.98 91.49 L 81.99 91.49 L 82.2 91.53 L 82.21 91.53 L 82.41 91.59 L 82.42 91.59 L 82.62 91.65 L 82.63 91.66 L 82.82 91.74 L 82.83 91.74 L 83.01 91.83 L 83.02 91.84 L 83.19 91.94 L 83.2 91.94 L 83.36 92.05 L 83.37 92.06 L 83.52 92.18 L 83.53 92.2 L 83.67 92.33 L 83.68 92.34 L 83.81 92.48 L 83.82 92.49 L 83.94 92.64 L 83.95 92.66 L 84.05 92.82 L 84.06 92.83 L 84.16 93.01 L 84.16 93.02 L 84.25 93.2 L 84.26 93.22 L 84.33 93.41 L 84.33 93.42 L 84.4 93.62 L 84.4 93.63 L 84.45 93.84 L 84.46 93.85 L 84.5 94.07 L 84.5 94.08 L 84.53 94.3 L 84.53 94.31 L 84.54 94.55 L 84.54 94.56 L 84.55 94.8 L 84.55 94.81 L 84.54 95.05 L 84.54 95.06 L 84.53 95.29 L 84.53 95.3 L 84.5 95.52 L 84.49 95.53 L 84.45 95.75 L 84.45 95.76 L 84.4 95.97 L 84.4 95.98 L 84.33 96.19 L 84.33 96.2 L 84.25 96.39 L 84.25 96.41 L 84.16 96.59 L 84.15 96.6 L 84.06 96.78 L 84.05 96.79 L 83.94 96.96 L 83.93 96.97 L 83.81 97.13 L 83.8 97.14 L 83.67 97.29 L 83.66 97.3 L 83.53 97.43 L 83.51 97.44 L 83.37 97.57 L 83.35 97.58 L 83.19 97.69 L 83.18 97.7 L 83.01 97.8 L 83 97.81 L 82.82 97.9 L 82.81 97.91 L 82.62 97.99 L 82.61 97.99 L 82.42 98.06 L 82.4 98.06 L 82.2 98.12 L 82.19 98.12 L 81.98 98.16 L 81.97 98.17 L 81.75 98.2 L 81.74 98.2 L 81.51 98.22 L 81.5 98.22 L 81.27 98.22 L 81.26 98.22 L 81.02 98.22 L 81.01 98.22 L 80.79 98.2 L 80.78 98.2 L 80.56 98.17 L 80.54 98.17 L 80.33 98.12 L 80.32 98.12 L 80.12 98.07 L 80.11 98.06 L 79.91 98 L 79.9 97.99 L 79.71 97.91 L 79.7 97.9 L 79.52 97.81 L 79.51 97.81 L 79.34 97.7 L 79.33 97.7 L 79.17 97.58 L 79.16 97.57 L 79.01 97.45 L 79 97.44 L 78.86 97.3 L 78.85 97.29 L 78.72 97.15 L 78.71 97.14 L 78.6 96.98 L 78.59 96.97 L 78.48 96.8 L 78.47 96.79 L 78.38 96.61 L 78.37 96.6 L 78.29 96.41 L 78.28 96.4 L 78.21 96.2 L 78.2 96.19 L 78.14 95.99 L 78.14 95.98 L 78.08 95.77 L 78.08 95.75 L 78.04 95.54 L 78.04 95.53 L 78.01 95.3 L 78.01 95.29 L 77.99 95.06 Z M 79.26 94.8 L 79.27 95.07 L 79.29 95.32 L 79.34 95.56 L 79.4 95.78 L 79.47 95.99 L 79.56 96.18 L 79.67 96.35 L 79.8 96.51 L 79.93 96.66 L 80.08 96.78 L 80.24 96.88 L 80.42 96.97 L 80.61 97.04 L 80.81 97.08 L 81.03 97.11 L 81.26 97.12 L 81.51 97.11 L 81.73 97.08 L 81.94 97.04 L 82.13 96.97 L 82.31 96.89 L 82.47 96.79 L 82.62 96.67 L 82.75 96.53 L 82.87 96.38 L 82.98 96.21 L 83.07 96.02 L 83.14 95.81 L 83.2 95.59 L 83.24 95.34 L 83.27 95.08 L 83.27 94.8 L 83.27 94.53 L 83.24 94.28 L 83.2 94.05 L 83.14 93.83 L 83.06 93.63 L 82.97 93.45 L 82.87 93.28 L 82.75 93.13 L 82.61 92.99 L 82.47 92.87 L 82.3 92.77 L 82.13 92.69 L 81.94 92.62 L 81.73 92.58 L 81.51 92.55 L 81.27 92.54 L 81.03 92.55 L 80.81 92.58 L 80.6 92.62 L 80.41 92.69 L 80.23 92.77 L 80.07 92.87 L 79.92 92.98 L 79.79 93.12 L 79.67 93.27 L 79.56 93.44 L 79.47 93.62 L 79.4 93.82 L 79.34 94.04 L 79.29 94.28 L 79.27 94.53 Z" fill="#111" stroke-width="0" stroke-linecap="round" stroke-linejoin="round" opacity="1" stroke="none" class="atom-7 label" data-text="O" /><path d="M 51.74 75.99 L 51.74 69.8 L 51.75 69.75 L 51.76 69.7 L 51.79 69.66 L 51.83 69.62 L 51.88 69.6 L 51.93 69.59 L 51.95 69.59 L 52.92 69.59 L 52.98 69.59 L 53.02 69.61 L 53.07 69.64 L 53.1 69.68 L 53.1 69.69 L 56.02 74.31 L 56.02 74.22 L 56.02 74.22 L 56.01 74.09 L 56.01 74.09 L 56.01 73.97 L 56.01 73.96 L 56.01 73.86 L 56.01 73.86 L 56.01 69.8 L 56.02 69.75 L 56.04 69.7 L 56.06 69.66 L 56.1 69.62 L 56.15 69.6 L 56.2 69.59 L 56.22 69.59 L 56.98 69.59 L 57.03 69.59 L 57.07 69.61 L 57.12 69.64 L 57.15 69.68 L 57.17 69.73 L 57.19 69.78 L 57.19 69.8 L 57.19 75.99 L 57.18 76.04 L 57.16 76.09 L 57.13 76.13 L 57.09 76.16 L 57.05 76.19 L 57 76.2 L 56.98 76.2 L 55.97 76.2 L 55.92 76.19 L 55.87 76.18 L 55.83 76.15 L 55.79 76.11 L 55.79 76.1 L 52.89 71.5 L 52.91 71.87 L 52.91 71.88 L 52.91 75.99 L 52.9 76.04 L 52.88 76.09 L 52.85 76.13 L 52.81 76.16 L 52.77 76.19 L 52.72 76.2 L 52.7 76.2 L 51.95 76.2 L 51.9 76.19 L 51.85 76.18 L 51.81 76.15 L 51.78 76.11 L 51.75 76.06 L 51.74 76.01 Z" fill="#111" stroke-width="0" stroke-linecap="round" stroke-linejoin="round" opacity="1" stroke="none" class="atom-8 label" data-text="N" /><path d="M 24.37 51.17 L 24.37 50.93 L 24.37 50.92 L 24.38 50.56 L 24.38 50.55 L 24.42 50.2 L 24.42 50.19 L 24.48 49.87 L 24.49 49.85 L 24.58 49.55 L 24.58 49.53 L 24.7 49.25 L 24.71 49.23 L 24.85 48.97 L 24.86 48.95 L 25.03 48.71 L 25.04 48.69 L 25.23 48.47 L 25.25 48.45 L 25.46 48.26 L 25.48 48.24 L 25.71 48.07 L 25.73 48.06 L 25.98 47.91 L 26.01 47.9 L 26.28 47.79 L 26.3 47.78 L 26.59 47.69 L 26.61 47.68 L 26.92 47.62 L 26.94 47.61 L 27.28 47.57 L 27.29 47.57 L 27.64 47.56 L 27.66 47.56 L 27.89 47.57 L 27.9 47.57 L 28.13 47.58 L 28.14 47.59 L 28.35 47.61 L 28.37 47.62 L 28.57 47.66 L 28.59 47.66 L 28.79 47.71 L 28.8 47.72 L 29 47.78 L 29.01 47.79 L 29.19 47.86 L 29.21 47.87 L 29.38 47.96 L 29.4 47.96 L 29.57 48.06 L 29.58 48.07 L 29.74 48.18 L 29.75 48.19 L 29.9 48.31 L 29.91 48.32 L 30.05 48.45 L 30.06 48.47 L 30.19 48.61 L 30.2 48.62 L 30.32 48.77 L 30.32 48.79 L 30.43 48.95 L 30.44 48.96 L 30.54 49.14 L 30.54 49.15 L 30.63 49.33 L 30.63 49.34 L 30.71 49.54 L 30.71 49.55 L 30.78 49.75 L 30.78 49.76 L 30.83 49.97 L 30.83 49.98 L 30.87 50.2 L 30.88 50.21 L 30.9 50.43 L 30.91 50.44 L 30.92 50.67 L 30.92 50.68 L 30.93 50.92 L 30.93 50.93 L 30.92 51.17 L 30.92 51.18 L 30.91 51.42 L 30.9 51.43 L 30.88 51.65 L 30.87 51.66 L 30.83 51.88 L 30.83 51.89 L 30.78 52.1 L 30.77 52.11 L 30.71 52.31 L 30.71 52.33 L 30.63 52.52 L 30.63 52.53 L 30.54 52.72 L 30.53 52.73 L 30.43 52.91 L 30.43 52.92 L 30.32 53.09 L 30.31 53.1 L 30.19 53.26 L 30.18 53.27 L 30.05 53.41 L 30.04 53.43 L 29.9 53.56 L 29.89 53.57 L 29.74 53.7 L 29.73 53.7 L 29.57 53.82 L 29.56 53.83 L 29.39 53.93 L 29.38 53.94 L 29.2 54.03 L 29.19 54.04 L 29 54.12 L 28.99 54.12 L 28.8 54.19 L 28.78 54.19 L 28.58 54.25 L 28.57 54.25 L 28.36 54.29 L 28.35 54.29 L 28.13 54.33 L 28.12 54.33 L 27.89 54.35 L 27.88 54.35 L 27.65 54.35 L 27.64 54.35 L 27.4 54.35 L 27.39 54.35 L 27.17 54.33 L 27.15 54.33 L 26.94 54.3 L 26.92 54.29 L 26.71 54.25 L 26.7 54.25 L 26.5 54.19 L 26.49 54.19 L 26.29 54.12 L 26.28 54.12 L 26.09 54.04 L 26.08 54.03 L 25.9 53.94 L 25.89 53.93 L 25.72 53.83 L 25.71 53.82 L 25.55 53.71 L 25.54 53.7 L 25.39 53.58 L 25.38 53.57 L 25.24 53.43 L 25.23 53.42 L 25.1 53.28 L 25.09 53.26 L 24.98 53.11 L 24.97 53.09 L 24.86 52.93 L 24.85 52.91 L 24.76 52.74 L 24.75 52.72 L 24.66 52.54 L 24.66 52.53 L 24.59 52.33 L 24.58 52.32 L 24.52 52.12 L 24.51 52.1 L 24.46 51.89 L 24.46 51.88 L 24.42 51.67 L 24.42 51.65 L 24.39 51.43 L 24.39 51.42 L 24.37 51.19 Z M 25.64 50.93 L 25.65 51.2 L 25.67 51.45 L 25.72 51.69 L 25.78 51.91 L 25.85 52.12 L 25.94 52.3 L 26.05 52.48 L 26.17 52.64 L 26.31 52.78 L 26.46 52.91 L 26.62 53.01 L 26.8 53.1 L 26.99 53.16 L 27.19 53.21 L 27.41 53.24 L 27.64 53.25 L 27.89 53.24 L 28.11 53.21 L 28.32 53.17 L 28.51 53.1 L 28.69 53.02 L 28.85 52.92 L 29 52.8 L 29.13 52.66 L 29.25 52.51 L 29.36 52.33 L 29.44 52.15 L 29.52 51.94 L 29.58 51.71 L 29.62 51.47 L 29.64 51.21 L 29.65 50.93 L 29.64 50.66 L 29.62 50.41 L 29.58 50.18 L 29.52 49.96 L 29.44 49.76 L 29.35 49.58 L 29.25 49.41 L 29.13 49.25 L 28.99 49.12 L 28.84 49 L 28.68 48.9 L 28.51 48.82 L 28.32 48.75 L 28.11 48.7 L 27.89 48.68 L 27.65 48.67 L 27.41 48.68 L 27.19 48.7 L 26.98 48.75 L 26.79 48.81 L 26.61 48.9 L 26.45 48.99 L 26.3 49.11 L 26.17 49.25 L 26.04 49.4 L 25.94 49.57 L 25.85 49.75 L 25.77 49.95 L 25.72 50.17 L 25.67 50.4 L 25.65 50.66 Z" fill="#111" stroke-width="0" stroke-linecap="round" stroke-linejoin="round" opacity="1" stroke="none" class="atom-10 label" data-text="O" /><path d="M 57.33 41.8 L 57.33 35.61 L 57.34 35.56 L 57.36 35.51 L 57.38 35.47 L 57.42 35.44 L 57.47 35.41 L 57.52 35.4 L 57.54 35.4 L 58.52 35.4 L 58.57 35.41 L 58.62 35.43 L 58.66 35.46 L 58.69 35.49 L 58.69 35.5 L 61.61 40.13 L 61.61 40.04 L 61.61 40.04 L 61.61 39.9 L 61.61 39.9 L 61.6 39.78 L 61.6 39.78 L 61.6 39.67 L 61.6 39.67 L 61.6 35.61 L 61.61 35.56 L 61.63 35.51 L 61.66 35.47 L 61.69 35.44 L 61.74 35.41 L 61.79 35.4 L 61.81 35.4 L 62.57 35.4 L 62.62 35.41 L 62.67 35.43 L 62.71 35.46 L 62.74 35.49 L 62.77 35.54 L 62.78 35.59 L 62.78 35.61 L 62.78 41.8 L 62.77 41.85 L 62.75 41.9 L 62.72 41.94 L 62.69 41.98 L 62.64 42 L 62.59 42.01 L 62.57 42.01 L 61.56 42.01 L 61.51 42.01 L 61.46 41.99 L 61.42 41.96 L 61.38 41.92 L 61.38 41.92 L 58.49 37.31 L 58.5 37.68 L 58.5 37.69 L 58.5 41.8 L 58.49 41.85 L 58.47 41.9 L 58.44 41.94 L 58.41 41.98 L 58.36 42 L 58.31 42.01 L 58.29 42.01 L 57.54 42.01 L 57.49 42.01 L 57.44 41.99 L 57.4 41.96 L 57.37 41.92 L 57.34 41.88 L 57.33 41.83 Z" fill="#111" stroke-width="0" stroke-linecap="round" stroke-linejoin="round" opacity="1" stroke="none" class="atom-11 label" data-text="N" /></g></g></svg>